<svg xmlns="http://www.w3.org/2000/svg" version="1.1" xmlns:xlink="http://www.w3.org/1999/xlink" xmlns:svgjs="http://svgjs.dev/svgjs" width="100%" height="100%" viewBox="0 0 1000 600"><rect width="1000" height="600" x="0" y="0" fill="#ffffff"/><g><circle r="166.66666666666666" cx="493.1507364908854" cy="515.3728957650579" fill="#596bf5" transform="matrix(0.3828670967524046,0,0,0.3828670967524046,0,102.6806622620987)"/><path d="M424.0982752711418 478.90093804203576L424.0982752711418 478.90093804203576L424.01547858068477 476.9414163678869L424.01547858068477 470.9248568613452Q424.01547858068477 458.42255660233883 424.48465982660775 442.2220041695866L424.48465982660775 442.2220041695866L424.2914675488748 442.0288118918536L429.5352579444845 441.72522402684467Q454.87104522432526 440.3728780827137 462.4331429527308 440.3728780827137L462.4331429527308 440.3728780827137L507.64013594225054 440.3728780827137Q530.8232092702094 440.3728780827137 546.1681959015726 449.9772941757252L546.1681959015726 449.9772941757252Q551.6051785749154 454.641507738136 554.9998428836521 462.4795944347316Q558.394507192389 470.34528002814625 558.394507192389 480.2532839861667L558.394507192389 480.2532839861667Q558.394507192389 499.3517205849137 532.7827309443583 512.7647844389471L532.7827309443583 512.7647844389471Q547.2445528775136 516.7390255808829 554.9446450900142 525.5154747693244Q562.6723361993338 534.291923957766 562.6723361993338 547.0150153913244L562.6723361993338 547.0150153913244Q562.6723361993338 569.5081162988083 542.4699437278268 581.1548507564257L542.4699437278268 581.1548507564257Q527.6217372392056 589.8761021512291 504.9354440539887 589.8761021512291L504.9354440539887 589.8761021512291L476.01180018767815 589.4897175957633Q457.2997481443971 589.4897175957633 426.33378591348065 590.3728822939711L426.33378591348065 590.3728822939711Q423.6290940252188 584.6599106524384 423.6290940252188 545.0554937171755Q423.6290940252188 505.47867567873146 424.0982752711418 478.90093804203576ZM480.8692060278219 560.0968924835297L484.4570626142917 560.0968924835297Q509.57205871958047 560.0968924835297 509.57205871958047 542.5439941066466L509.57205871958047 542.5439941066466Q509.57205871958047 531.3940397917711 502.7827301021068 527.5853920307493L502.7827301021068 527.5853920307493Q496.6833739051081 524.3011233092884 484.0706780588257 523.9147387538226L484.0706780588257 523.9147387538226L481.2555905832879 523.9147387538226L479.516860083691 529.3517214271653Q478.826887663216 539.3425220756428 478.826887663216 549.0021359622922Q478.826887663216 558.6341509521228 480.8692060278219 560.0968924835297L480.8692060278219 560.0968924835297ZM505.32182860945466 495.18428716524494L505.32182860945466 495.18428716524494Q507.2537513867846 491.51363388831817 507.2537513867846 486.2698434927084L507.2537513867846 486.2698434927084Q507.2537513867846 476.0858505664979 499.96764262656893 472.5807906704851Q492.7091327631723 469.0757307744723 484.7330515824817 469.0757307744723Q476.7845692986101 469.0757307744723 476.7845692986101 474.899098003281L476.7845692986101 474.899098003281Q476.7845692986101 485.30388210404345 477.28134944135206 496.15024855390993L477.28134944135206 496.15024855390993L477.4745417190851 501.3112422590627Q477.6677339968181 504.98189553598945 481.7247718292109 505.67186795646444L481.7247718292109 505.67186795646444L486.49938097889765 505.09229112326545Q501.2371918802429 503.3259617268495 505.32182860945466 495.18428716524494Z " fill="#ffffff" transform="matrix(0.3828670967524046,0,0,0.3828670967524046,0,102.6806622620987)"/><path d="M743.5346940676827 476.5120183330779L743.5346940676827 476.5120183330779L743.4669331920337 474.9083442760508L743.4669331920337 469.9843873122211Q743.4669331920337 459.7524950892172 743.8509114873782 446.4939504205564L743.8509114873782 446.4939504205564L743.6928027775305 446.3358417107087L747.9843249019692 446.0873851666622Q768.7191528505732 444.98062419772805 774.9079794931849 444.98062419772805L774.9079794931849 444.98062419772805L811.9054175975567 444.98062419772805Q830.8784627792859 444.98062419772805 843.4368117329066 452.84088577301577L843.4368117329066 452.84088577301577Q847.8864425671931 456.6580817679113 850.6646384688034 463.07277799601974Q853.4428343704137 469.5100611826779 853.4428343704137 477.6187793020121L853.4428343704137 477.6187793020121Q853.4428343704137 493.24895461838895 832.482136836313 504.22621647353225L832.482136836313 504.22621647353225Q844.3177031163441 507.47873850468585 850.6194645517041 514.6613913234833Q856.9438129456138 521.8440441422808 856.9438129456138 532.2566320336821L856.9438129456138 532.2566320336821Q856.9438129456138 550.6650032516693 840.4101592872498 560.1966997596332L840.4101592872498 560.1966997596332Q828.2583755875232 567.3341786613314 809.6918956596883 567.3341786613314L809.6918956596883 567.3341786613314L786.0207630996263 567.0179612416359Q770.7068052029449 567.0179612416359 745.3642377102067 567.7407439152256L745.3642377102067 567.7407439152256Q743.1507157723381 563.0652434954424 743.1507157723381 530.652957976655Q743.1507157723381 498.2632594164174 743.5346940676827 476.5120183330779ZM789.9960678043694 542.9628503862293L792.9323724158276 542.9628503862293Q813.4865046960342 542.9628503862293 813.4865046960342 528.5975447486344L813.4865046960342 528.5975447486344Q813.4865046960342 519.4724134945646 807.9301128928134 516.3554132147092L807.9301128928134 516.3554132147092Q802.9383950533347 513.6675651472974 792.6161549961321 513.3513477276019L792.6161549961321 513.3513477276019L790.3122852240649 513.3513477276019L788.8893068354353 517.8009785618885Q788.3246328716933 525.9774575568717 788.3246328716933 533.8828930492589Q788.3246328716933 541.7657415830963 789.9960678043694 542.9628503862293L789.9960678043694 542.9628503862293ZM810.0081130793837 489.83832387738767L810.0081130793837 489.83832387738767Q811.5892001778612 486.8342583902805 811.5892001778612 482.5427362658418L811.5892001778612 482.5427362658418Q811.5892001778612 474.2081485610108 805.6262431207464 471.3396048252017Q799.6858730221811 468.4710610893927 793.1582420013244 468.4710610893927Q786.6531979390172 468.4710610893927 786.6531979390172 473.23690934337463L786.6531979390172 473.23690934337463Q786.6531979390172 481.7521927166031 787.0597631929114 490.62886742662636L787.0597631929114 490.62886742662636L787.2178719027592 494.8526286754161Q787.3759806126069 497.8566941625232 790.6962635194095 498.4213681262651L790.6962635194095 498.4213681262651L794.6038073485038 497.9470419967219Q806.6652432140315 496.50147664954255 810.0081130793837 489.83832387738767ZM914.4953833301922 470.1424960220688L914.4953833301922 477.77688801185985L914.3372746203445 528.1909794947402Q914.3372746203445 536.2996976140744 920.1421229676116 536.2996976140744L920.1421229676116 536.2996976140744Q924.9757320972426 536.2996976140744 924.9757320972426 527.7166533651969L924.9757320972426 527.7166533651969L924.9757320972426 470.23284385626755L951.1088431392196 470.1424960220688L976.9934976371501 470.1424960220688L977.0838454713488 565.0303088892642L932.6101240870337 565.0303088892642L928.8832759263369 552.1783294744978Q918.719144578982 567.9892004592721 901.0109690760347 567.9892004592721L901.0109690760347 567.9892004592721Q885.7647720550024 567.9892004592721 875.352184163601 559.2480475005468L875.352184163601 559.2480475005468L875.4425319977997 558.6833735368049Q874.0873144848191 558.2993952414604 872.0996621324475 555.7922428424462Q870.1120097800758 553.285090443432 869.0730096867907 551.455546800908L869.0730096867907 551.455546800908Q863.9231831374642 542.0819590027918 863.9231831374642 523.8994573703014L863.9231831374642 523.8994573703014L863.9909440131132 521.3697180127376L863.9909440131132 470.23284385626755L889.2431636716527 470.23284385626755L914.4953833301922 470.1424960220688ZM994.7920209742961 474.99869211024946L994.7920209742961 471.97203966459267L994.6339122644482 465.6251043121333Q994.6339122644482 461.8079083172378 997.2765864147606 454.580081581341Q999.9418475236225 447.3522548454441 1004.4818261921077 443.39953709925055L1004.4818261921077 443.39953709925055Q1008.6830004823478 440.3728846535938 1021.2639363945182 440.3728846535938Q1033.8448723066886 440.3728846535938 1047.8261996489389 440.59875423909057L1047.8261996489389 440.59875423909057L1047.8261996489389 457.5163861927991L1045.1383515815273 457.5163861927991Q1042.2698078457183 457.5163861927991 1041.0049381669364 457.44862531715L1041.0049381669364 457.44862531715Q1034.7257636901259 459.7524950892172 1034.7257636901259 470.61682215161204L1034.7257636901259 470.61682215161204Q1034.8838723999736 471.09114828115526 1034.8838723999736 471.2944309081024Q1034.8838723999736 471.49771353504946 1034.8161115243247 471.81393095474493L1034.8161115243247 471.81393095474493L1034.8161115243247 474.05003985116304Q1037.3458508818885 474.52436598070625 1040.6887207472407 474.52436598070625L1040.6887207472407 474.52436598070625L1044.2574601980898 474.52436598070625Q1046.3128734261104 474.52436598070625 1047.5099822292434 474.5921268563553L1047.5099822292434 474.5921268563553L1047.5099822292434 498.9634551314574L1034.5676549802783 498.9634551314574L1034.5676549802783 565.2110045576617L1017.9662404462651 565.2787654333108Q1010.5803050005206 565.2787654333108 994.5435644302495 565.1206567234631L994.5435644302495 565.1206567234631L994.5435644302495 498.89569425580834L985.4861940518289 498.89569425580834L985.4184331761799 486.9020192659296L985.4184331761799 474.99869211024946L994.7920209742961 474.99869211024946ZM1065.692483861734 474.99869211024946L1065.692483861734 471.97203966459267L1065.5343751518863 465.6251043121333Q1065.5343751518863 461.8079083172378 1068.199636260748 454.580081581341Q1070.86489736961 447.3522548454441 1075.3822890795454 443.39953709925055L1075.3822890795454 443.39953709925055Q1079.5834633697857 440.3728846535938 1092.1869862405056 440.3728846535938Q1104.767922152676 440.3728846535938 1118.7492494949265 440.59875423909057L1118.7492494949265 440.59875423909057L1118.7492494949265 457.5163861927991L1116.0388144689653 457.5163861927991Q1113.170270733156 457.5163861927991 1111.9054010543741 457.44862531715L1111.9054010543741 457.44862531715Q1105.6262265775638 459.7524950892172 1105.6262265775638 470.61682215161204L1105.6262265775638 470.61682215161204Q1105.7843352874115 471.09114828115526 1105.7843352874115 471.2944309081024Q1105.7843352874115 471.49771353504946 1105.7165744117626 471.81393095474493L1105.7165744117626 471.81393095474493L1105.7165744117626 474.05003985116304Q1108.2463137693264 474.52436598070625 1111.5891836346786 474.52436598070625L1111.5891836346786 474.52436598070625L1115.1579230855277 474.52436598070625Q1117.2359232720983 474.52436598070625 1118.4104451166813 474.5921268563553L1118.4104451166813 474.5921268563553L1118.4104451166813 498.9634551314574L1105.468117867716 498.9634551314574L1105.468117867716 565.2110045576617L1088.8892902922528 565.2787654333108Q1081.5033548465083 565.2787654333108 1065.4666142762371 565.1206567234631L1065.4666142762371 565.1206567234631L1065.4666142762371 498.89569425580834L1056.4092438978164 498.89569425580834L1056.3188960636178 486.9020192659296L1056.3188960636178 474.99869211024946L1065.692483861734 474.99869211024946ZM1164.7137101435203 512.9447824737078L1168.372797428568 512.4026954685155L1169.163340977807 512.4704563441646L1171.0606454959798 512.4704563441646Q1173.771080521941 512.4704563441646 1175.2844067447695 512.08647804882L1175.2844067447695 512.08647804882L1179.5759288692082 511.52180408507814Q1190.5306037658017 510.7312605358394 1192.7441257036703 505.64919486216195L1192.7441257036703 505.64919486216195Q1193.8508866726045 503.09686854604837 1193.8508866726045 499.21191167550387L1193.8508866726045 499.21191167550387Q1193.3765605430613 498.4213681262651 1193.3765605430613 496.1852592298471Q1193.3765605430613 493.9717372919786 1191.1178646880935 491.5097588100638Q1188.8591688331258 489.0477803281489 1185.7647555118199 489.0477803281489L1185.7647555118199 489.0477803281489L1185.3581902579256 489.0477803281489Q1177.7463852266842 489.0477803281489 1177.7463852266842 501.9901075771142L1177.7463852266842 501.9901075771142Q1177.33981997279 502.62254241650515 1176.436341630803 502.4644337066574Q1175.5102763302662 502.3063249968097 1172.031884713616 502.3063249968097L1172.031884713616 502.3063249968097L1131.0365549459511 502.3063249968097Q1131.4431201998452 496.8402810277877 1133.9050986817601 490.4707587167786L1133.9050986817601 490.4707587167786Q1138.5805991015434 478.25121414140307 1152.0424263971513 472.8981049651295Q1165.504253692759 467.52240883030623 1178.7627983614198 467.04808270076296L1178.7627983614198 467.04808270076296L1183.5286466154018 466.8222131152662L1186.0809729315154 466.57375657121975Q1186.5552990610586 466.57375657121975 1187.0296251906018 466.8222131152662L1187.0296251906018 466.8222131152662L1188.0686252838868 466.8222131152662L1191.637364734736 466.66410440541847Q1192.7441257036703 466.66410440541847 1196.6290825742149 467.2061914106107L1196.6290825742149 467.2061914106107L1198.9329523462818 467.52240883030623Q1199.4976263100239 467.6127566645049 1200.6947351131566 467.6127566645049Q1201.86925695774 467.6127566645049 1205.6864529526356 468.13225671114753Q1209.503648947531 468.6517567577901 1215.2181494605993 470.8652786956585L1215.2181494605993 470.8652786956585Q1234.597759896223 478.4770837268998 1238.7311733108138 500.0928030589413L1238.7311733108138 500.0928030589413Q1240.470369119139 509.217934313011 1240.470369119139 520.3307179194524L1240.470369119139 520.3307179194524Q1241.0350430828807 522.1602615619763 1241.0350430828807 523.6735877848046L1241.0350430828807 523.6735877848046L1240.6284778289867 529.1396317538266L1240.6284778289867 538.3551108420951Q1240.7188256631853 538.5132195519428 1240.7188256631853 539.7103283550757L1240.7188256631853 539.7103283550757L1240.5607169533375 545.1086114484488L1240.5607169533375 545.8313941220383Q1240.7865865388344 546.2153724173829 1240.7865865388344 546.9381550909725L1240.7865865388344 546.9381550909725L1240.7188256631853 547.6609377645623L1240.7188256631853 549.3097857386888Q1240.7188256631853 556.853829894281 1243.0001084767027 563.6073305006346L1243.0001084767027 563.6073305006346L1243.8132389844911 565.3691132675094L1207.9225618490536 565.3691132675094L1205.0540181132444 565.2787654333108Q1201.86925695774 565.2787654333108 1200.2204089836134 565.3691132675094L1200.2204089836134 565.3691132675094Q1197.6680826675 560.6032650135276 1195.364212895433 552.3364381843455L1195.364212895433 552.3364381843455Q1194.3252128021477 554.4821992465648 1191.840647361683 557.2152212310759Q1189.333494962669 559.9482432155869 1188.136386159536 559.9482432155869L1188.136386159536 559.9482432155869Q1176.3911677137037 565.6853306872049 1170.270101946741 566.4758742364436L1170.270101946741 566.4758742364436Q1161.2127315683204 567.9892004592721 1160.5577097703797 567.9892004592721Q1159.8801010138893 567.9892004592721 1159.8801010138893 567.9892004592721L1159.8801010138893 567.9892004592721Q1140.8844688736106 567.9892004592721 1131.1946636557989 554.7984166662604L1131.1946636557989 554.7984166662604Q1126.361054526168 548.0449160599068 1126.361054526168 539.1456543913338L1126.361054526168 539.1456543913338Q1126.361054526168 519.8563917899091 1144.3176865731616 515.4971087898214L1144.3176865731616 515.4971087898214Q1148.902839158746 514.3903478208872 1162.0936229517579 513.1932390177542L1162.0936229517579 513.1932390177542L1164.7137101435203 512.9447824737078ZM1194.4155606363463 533.2052842927685L1194.4155606363463 530.8110666865027L1194.4833215119954 528.2813273289389Q1194.4833215119954 524.3060226241956 1193.8508866726045 520.6469353391478L1193.8508866726045 520.6469353391478Q1192.1116908642794 521.5955875982343 1188.768820998927 522.7926964013673Q1185.4485380921244 523.9898052045002 1183.4608857397527 524.8255226708382Q1181.4732333873812 525.6612401371763 1179.8469723718044 527.7618272822963Q1178.2207113562276 529.8624144274163 1178.2207113562276 533.521501712464Q1178.2207113562276 537.1580020389622 1180.5471680868443 540.1846544846189Q1182.8962117760107 543.2113069302757 1185.6744076776213 543.2113069302757L1185.6744076776213 543.2113069302757Q1191.637364734736 543.2113069302757 1194.1671040923 538.919784805837L1194.1671040923 538.919784805837L1194.3252128021477 538.1292412565983L1194.4155606363463 533.2052842927685ZM1253.7289137877997 565.2110045576617L1253.5708050779517 440.44064552924283L1273.740959062814 440.3728846535938Q1282.9564381510825 440.3728846535938 1302.3360485867058 440.53099336344155L1302.3360485867058 440.53099336344155L1302.3360485867058 565.2110045576617L1253.7289137877997 565.2110045576617ZM1429.9297774338345 517.0781958882988L1429.9297774338345 517.0781958882988Q1429.7716687239865 517.8687394375374 1429.7716687239865 518.0268481473852L1429.7716687239865 518.0268481473852L1429.7716687239865 518.6592829867762Q1429.5457991384899 531.7597189455892 1423.7409507912228 542.2400677126395L1423.7409507912228 542.2400677126395L1423.8312986254214 542.2400677126395Q1415.7225805060873 554.6403079564126 1401.221753117194 561.3034607285674Q1386.7435126868509 567.9892004592721 1372.6944244689514 567.9892004592721Q1358.6227492925022 567.9892004592721 1349.3846832456843 565.2335915162114Q1340.1240302403162 562.5005695317004 1332.2637686650287 557.2603951481752Q1324.4035070897407 552.02022076465 1320.5863110948453 547.1640246764694L1320.5863110948453 547.1640246764694Q1311.5289407164246 535.7350236503326 1311.5289407164246 514.8646739504304L1311.5289407164246 514.8646739504304Q1311.5289407164246 514.1418912768407 1311.777397260471 513.6675651472974L1311.777397260471 513.6675651472974L1311.777397260471 512.4026954685155Q1311.5289407164246 512.08647804882 1311.5289407164246 511.7476736705749L1311.5289407164246 511.7476736705749L1311.709636384822 510.88936924568713L1311.6192885506234 510.88936924568713Q1313.1326147734517 496.9983897376355 1317.4918977735394 492.616519778998L1317.4918977735394 492.616519778998Q1317.4918977735394 491.75821535411023 1318.5986587424736 490.62886742662636L1318.5986587424736 490.62886742662636L1318.5986587424736 490.7192152608251L1319.7957675456064 488.7993237841025Q1329.1693553437228 476.82823575277337 1341.2307912092506 472.3786049184869L1341.2307912092506 472.3786049184869L1344.008987110861 471.3396048252017Q1349.249161494386 468.80986546763785 1358.7130971267009 467.52240883030623L1358.7130971267009 467.52240883030623L1361.242836484265 467.2965392448094Q1361.807510448007 467.2061914106107 1363.5015323392327 467.1384305349617Q1365.218141189008 467.04808270076296 1365.9409238625979 466.8222131152662L1365.9409238625979 466.8222131152662L1369.351554603599 466.8899739909152Q1369.5774241890958 466.8222131152662 1369.8936416087915 466.8222131152662Q1370.2324459870367 466.8222131152662 1370.616424282381 466.8899739909152L1370.616424282381 466.8899739909152L1370.5486634067322 466.8222131152662Q1371.0229895362752 467.04808270076296 1371.9716417953616 467.04808270076296L1371.9716417953616 467.04808270076296Q1372.287859215057 466.7318652810675 1373.078402764296 466.7318652810675L1373.078402764296 466.7318652810675Q1390.3122521377 466.7318652810675 1402.3736880032277 473.8015833071166L1402.3736880032277 473.8015833071166L1403.9773620602548 474.52436598070625Q1429.9297774338345 486.99236710012826 1429.9297774338345 517.0781958882988ZM1380.5546860442394 517.552522017842L1380.5546860442394 517.552522017842Q1380.2158816659942 501.7642379916174 1376.0147073757541 496.1852592298471L1376.0147073757541 496.1852592298471Q1374.2755115674288 493.88138945777996 1371.7683591684147 493.88138945777996Q1369.2612067694006 493.88138945777996 1367.3639022512275 496.7951071106883Q1365.4665977330546 499.6862378050471 1364.314662847021 505.87506444765876Q1363.1627279609877 512.08647804882 1363.1627279609877 516.8749132613517Q1363.1627279609877 521.6859354324331 1363.5918801734313 525.1417400905336Q1364.0210323858753 528.5975447486344 1364.9019237693126 532.4373277020795Q1365.78281515275 536.2996976140744 1367.612358795274 538.8746108887376Q1369.419315479248 541.4495241634008 1371.7231852513153 541.4495241634008L1371.7231852513153 541.4495241634008Q1380.5546860442394 541.4495241634008 1380.5546860442394 517.552522017842ZM1499.1813923471457 565.3691132675094L1499.4072619326425 556.6279603087842Q1499.4072619326425 540.5008719043144 1500.28815331608 534.2216974275041L1500.28815331608 534.2216974275041Q1500.28815331608 499.6862378050471 1501.2368055751665 464.58610421884816L1501.2368055751665 464.58610421884816Q1501.0109359896696 459.5943863793694 1501.0109359896696 454.51232070569193L1501.0109359896696 454.51232070569193L1501.0109359896696 451.89223351392934Q1500.6947185699744 449.4302550320145 1500.6947185699744 447.51036355529186Q1500.6947185699744 445.613059037119 1501.0786968653188 445.04838507337706L1501.0786968653188 445.04838507337706Q1518.086676653226 446.0873851666622 1530.8708951923434 446.0873851666622Q1543.655113731461 446.0873851666622 1548.420961985443 445.613059037119L1548.420961985443 445.613059037119Q1548.5790706952907 445.86151558116546 1548.6468315709396 446.96827655009963L1548.6468315709396 446.96827655009963L1548.1047445657475 446.96827655009963L1548.1047445657475 475.6988878252895L1548.6468315709396 540.3427631944667Q1548.6468315709396 541.0655458680565 1548.895288114986 541.5398719975997L1548.895288114986 541.5398719975997L1548.895288114986 541.6979807074474Q1549.121157700483 542.1723068369906 1549.121157700483 542.7369808007325L1549.121157700483 542.7369808007325L1549.7535925398738 565.8434393970526Q1549.3696142445294 566.7017438219405 1548.3306141512442 567.1760699514837L1548.3306141512442 567.1760699514837L1545.6427660838324 567.1760699514837L1501.1690446995174 567.8988526250733Q1500.378501150279 567.4922873711791 1499.091044512947 566.7017438219405L1499.091044512947 566.7017438219405L1499.1813923471457 565.3691132675094ZM1665.2181246458256 486.0211278824921L1665.2181246458256 486.0211278824921Q1679.9899955373148 466.7318652810675 1694.6715185946052 466.7318652810675Q1709.3756286104451 466.7318652810675 1720.5561730925358 477.6187793020121L1720.5561730925358 477.6187793020121Q1726.0448040201072 483.01706239538504 1727.9421085382803 489.61245429189086L1727.9421085382803 489.61245429189086L1728.5067825020221 491.75821535411023Q1730.6525435642416 499.21191167550387 1730.6525435642416 500.99628140092835Q1730.6525435642416 502.7806511263529 1730.3363261445463 503.8874120952871L1730.3363261445463 503.8874120952871Q1730.8784131497382 504.38432518338 1730.8784131497382 505.3329774424665L1730.8784131497382 505.3329774424665L1730.7203044398905 508.4273907637723Q1730.8784131497382 514.1418912768407 1730.8784131497382 516.4457610489078L1730.8784131497382 516.4457610489078L1730.8784131497382 565.2110045576617L1682.7681914389252 565.2110045576617L1682.700430563276 518.5011742769285L1682.7681914389252 516.7619784686033Q1682.7681914389252 505.24262960826775 1676.330908252267 505.24262960826775L1676.330908252267 505.24262960826775Q1669.1030815163701 505.24262960826775 1669.1030815163701 517.9590872717363L1669.1030815163701 517.9590872717363L1669.261190226218 523.4251312407582L1669.261190226218 565.1206567234631L1647.193731723183 565.2110045576617L1625.194034095797 565.2110045576617L1625.1262732201478 522.5668268158704L1625.2843819299958 517.3944133079942Q1625.2843819299958 507.07217325079165 1618.9148596189866 505.17486873261873L1618.9148596189866 505.17486873261873Q1611.4611632975927 505.5588470279633 1611.4611632975927 516.6716306344047L1611.4611632975927 516.6716306344047L1611.6192720074407 521.4374788883865L1611.6192720074407 565.1206567234631L1586.0508349292056 565.2110045576617L1560.6405065608185 565.2110045576617L1560.5501587266199 517.4847611421931L1560.5501587266199 470.0747351464198L1582.323986768509 469.9843873122211L1604.165575686047 469.9843873122211L1604.7076626912394 471.90427878894366Q1607.6439673026975 482.29427972179536 1609.1572935255258 488.0991280690625L1609.1572935255258 488.0991280690625Q1614.3297070334022 479.1998664004895 1621.1961424325038 472.9658658407785Q1628.062577831606 466.7318652810675 1634.8838393136086 466.7318652810675L1634.8838393136086 466.7318652810675Q1637.029600375828 466.7318652810675 1639.1753614380475 466.7318652810675L1639.1753614380475 466.7318652810675Q1646.0869707542488 466.7318652810675 1653.3147974901456 472.42377883558623Q1660.5426242260426 478.09310543155533 1665.2181246458256 486.0211278824921ZM1737.4060441705951 530.2689796813105L1737.4060441705951 470.1424960220688L1757.8924155751527 470.0747351464198L1778.604656565207 470.0747351464198Q1780.1179827880353 473.1691484677256 1781.3150915911685 475.314909529945L1781.3150915911685 475.314909529945L1784.341744036825 480.87130133316566Q1792.7440926173051 473.1691484677256 1799.8589845604536 469.9618003536714Q1806.9512895450523 466.7318652810675 1815.376225084082 466.7318652810675Q1823.8011606231119 466.7318652810675 1830.4643133952666 469.82627860237335L1830.4643133952666 469.82627860237335Q1842.209531841099 475.314909529945 1847.9014453956177 488.41534548875796Q1853.5707719915865 501.515781447571 1853.5707719915865 516.3554132147092L1853.5707719915865 516.3554132147092Q1853.5707719915865 518.2753046914318 1853.2545545718915 519.8563917899091L1853.2545545718915 519.8563917899091Q1851.9896848931096 533.6796104223118 1848.4435324008102 542.7595677592822Q1844.9199668670606 551.8621120548023 1836.0207051984873 560.0385910497855L1836.0207051984873 560.0385910497855L1836.0207051984873 559.9482432155869Q1828.0926827475507 566.7920916561391 1820.9326168873029 566.7920916561391L1820.9326168873029 566.7920916561391Q1818.877203659282 567.7407439152256 1816.7766165141622 567.7407439152256Q1814.6534424104923 567.7407439152256 1810.8814203326963 567.2212438685831Q1807.1093982549003 566.7017438219405 1805.9348764103167 566.0693089825495L1805.9348764103167 566.0693089825495Q1794.8898536795243 563.6976783348333 1788.068592197522 556.6957211844333L1788.068592197522 556.6957211844333L1785.0419397518651 556.7860690186319Q1785.764722425455 561.3034607285674 1785.764722425455 564.555982759721L1785.764722425455 564.555982759721L1785.674374591256 566.0015481069004L1785.674374591256 590.2825285478038L1761.5515028602006 590.3728763820025L1737.473805046244 590.3728763820025L1737.4060441705951 530.2689796813105ZM1803.8568762237467 525.186914007633L1803.8568762237467 525.186914007633L1804.2634414776405 520.1726092096046Q1804.1730936434421 520.1048483339556 1804.1730936434421 519.8563917899091Q1804.1730936434421 519.6305222044124 1804.2634414776405 519.4724134945646L1804.2634414776405 519.4724134945646L1804.2634414776405 518.117195981584Q1804.2634414776405 514.2096521524898 1803.947224057945 511.6799127949259L1803.947224057945 511.6799127949259L1803.472897928402 508.33704292957356Q1803.314789218554 507.54649938033486 1802.5920065449643 503.50343379994257L1802.5920065449643 503.50343379994257Q1800.6947020267914 493.24895461838895 1794.5736362598293 493.24895461838895L1794.5736362598293 493.24895461838895Q1784.7257223321697 493.24895461838895 1784.7257223321697 519.1336091163195L1784.7257223321697 519.1336091163195Q1784.7257223321697 533.3633930026162 1789.0850053322577 539.8684370649235L1789.0850053322577 539.8684370649235Q1791.1630055188277 542.8950895105802 1794.167071005935 543.5952852256203L1794.167071005935 543.5952852256203Q1802.4338978351168 542.8950895105802 1803.8568762237467 525.186914007633ZM1978.0926744759593 517.0781958882988L1978.0926744759593 517.0781958882988Q1977.9345657661117 517.8687394375374 1977.9345657661117 518.0268481473852L1977.9345657661117 518.0268481473852L1977.9345657661117 518.6592829867762Q1977.686109222065 531.7597189455892 1971.8812608747978 542.2400677126395L1971.8812608747978 542.2400677126395L1971.9716087089967 542.2400677126395Q1963.8628905896624 554.6403079564126 1949.384650159319 561.3034607285674Q1934.8838227704261 567.9892004592721 1920.8347345525265 567.9892004592721Q1906.7856463346272 567.9892004592721 1897.5249933292596 565.2335915162114Q1888.2643403238915 562.5005695317004 1880.404078748604 557.2603951481752Q1872.543817173316 552.02022076465 1868.7492081369703 547.1640246764694L1868.7492081369703 547.1640246764694Q1859.6918377585496 535.7350236503326 1859.6918377585496 514.8646739504304L1859.6918377585496 514.8646739504304Q1859.6918377585496 514.1418912768407 1859.9177073440462 513.6675651472974L1859.9177073440462 513.6675651472974L1859.9177073440462 512.4026954685155Q1859.6918377585496 512.08647804882 1859.6918377585496 511.7476736705749L1859.6918377585496 511.7476736705749L1859.849946468397 510.88936924568713L1859.7595986341987 510.88936924568713Q1861.272924857027 496.9983897376355 1865.6547948156642 492.616519778998L1865.6547948156642 492.616519778998Q1865.6547948156642 491.75821535411023 1866.7615557845986 490.62886742662636L1866.7615557845986 490.62886742662636L1866.7615557845986 490.7192152608251L1867.9360776291817 488.7993237841025Q1877.309665427298 476.82823575277337 1889.3936882513756 472.3786049184869L1889.3936882513756 472.3786049184869L1892.1718841529857 471.3396048252017Q1897.412058536511 468.80986546763785 1906.8534072102764 467.52240883030623L1906.8534072102764 467.52240883030623L1909.40573352639 467.2965392448094Q1909.947820531582 467.2061914106107 1911.6644293813576 467.1384305349617Q1913.3584512725831 467.04808270076296 1914.0812339461734 466.8222131152662L1914.0812339461734 466.8222131152662L1917.4918646871745 466.8899739909152Q1917.7403212312208 466.8222131152662 1918.0565386509163 466.8222131152662Q1918.3727560706118 466.8222131152662 1918.7567343659564 466.8899739909152L1918.7567343659564 466.8899739909152L1918.6889734903073 466.8222131152662Q1919.1632996198507 467.04808270076296 1920.1119518789371 467.04808270076296L1920.1119518789371 467.04808270076296Q1920.4281692986326 466.7318652810675 1921.218712847871 466.7318652810675L1921.218712847871 466.7318652810675Q1938.4525622212752 466.7318652810675 1950.536585045353 473.8015833071166L1950.536585045353 473.8015833071166L1952.1176721438303 474.52436598070625Q1978.0926744759593 486.99236710012826 1978.0926744759593 517.0781958882988ZM1928.6949961278144 517.552522017842L1928.6949961278144 517.552522017842Q1928.378778708119 501.7642379916174 1924.177604417879 496.1852592298471L1924.177604417879 496.1852592298471Q1922.4158216510039 493.88138945777996 1919.9086692519897 493.88138945777996Q1917.4241038115254 493.88138945777996 1915.5042123348028 496.7951071106883Q1913.60690781663 499.6862378050471 1912.4549729305966 505.87506444765876Q1911.3030380445628 512.08647804882 1911.3030380445628 516.8749132613517Q1911.3030380445628 521.6859354324331 1911.7321902570068 525.1417400905336Q1912.1839294280005 528.5975447486344 1913.042233852888 532.4373277020795Q1913.9231252363254 536.2996976140744 1915.7526688788491 538.8746108887376Q1917.5822125213729 541.4495241634008 1919.8860822934405 541.4495241634008L1919.8860822934405 541.4495241634008Q1928.6949961278144 541.4495241634008 1928.6949961278144 517.552522017842ZM1986.0206969268959 517.8009785618885L1986.0206969268959 470.0747351464198L2007.1395031708446 469.9843873122211L2028.280896373343 469.9843873122211L2030.020092181668 480.6228447891192Q2031.849635824192 491.8259762297593 2032.1658532438876 493.3393024525877L2032.1658532438876 493.3393024525877L2034.9440491454977 493.3393024525877Q2037.8803537569559 479.76454036423144 2046.2149414617868 474.05003985116304L2046.2149414617868 474.05003985116304L2049.399702617291 472.22049620863913Q2049.625572202788 471.7461700790959 2052.245659394551 470.4587134417643L2052.245659394551 470.4587134417643L2051.9294419748558 470.549061275963L2053.758985617379 469.82627860237335Q2061.5514863170183 466.7318652810675 2067.1756389958873 466.66410440541847L2067.1756389958873 466.66410440541847Q2068.3727477990205 466.66410440541847 2068.756726094365 466.8222131152662L2068.756726094365 466.8222131152662L2071.715617664373 466.8222131152662L2071.715617664373 511.11523883118394Q2070.0441827316963 510.7312605358394 2066.4754432808477 510.7312605358394Q2062.884116871449 510.7312605358394 2059.1120947936524 511.7476736705749Q2055.340072715857 512.7866737638601 2052.7651594411936 514.4129347794369Q2050.1902461665304 516.0391957950137 2048.2703546898074 518.5915221111272L2048.2703546898074 518.5915221111272Q2042.3977454668914 526.451783686415 2042.3977454668914 542.1723068369906L2042.3977454668914 542.1723068369906L2042.5558541767393 550.5068945418216L2042.5558541767393 565.1206567234631L2014.2995690310925 565.2110045576617L1986.1110447610952 565.2110045576617L1986.0206969268959 517.8009785618885ZM2139.3635585206566 493.4974111624354L2139.3635585206566 525.5708923029775L2139.2732106864587 526.7680011061104Q2139.2732106864587 529.5461970077208 2139.4764933134056 530.8562406036021Q2139.6797759403526 532.1662841994835 2141.102754328982 533.950653924908Q2142.5257327176123 535.7350236503326 2150.4085812514495 535.7350236503326L2150.4085812514495 535.7350236503326L2152.5317553551195 535.8253714845312Q2153.728864158252 535.8253714845312 2154.6775164173387 535.5769149404848L2154.6775164173387 535.5769149404848L2154.7678642515375 565.2110045576617L2111.333142960507 565.2110045576617L2108.6227079345463 565.3691132675094L2107.764403509658 565.3691132675094Q2104.8280988982006 565.3691132675094 2101.3271203230006 563.4492217907869Q2097.8261417477997 561.551917272614 2096.132119856574 560.0837649668849Q2094.4155110067986 558.6156126611559 2093.2184022036663 556.3117428890887L2093.2184022036663 556.3117428890887Q2091.0048802657975 552.02022076465 2090.5757280533535 547.8416334329597Q2090.12398888236 543.685633059819 2090.12398888236 537.4968064172074L2090.12398888236 537.4968064172074L2090.12398888236 493.4974111624354L2080.750401084244 493.4974111624354L2080.6826402085953 482.38462755599403L2080.6826402085953 471.02338740550624L2089.8077714626643 471.02338740550624L2089.8077714626643 444.7321676536816L2114.337208447614 444.7321676536816L2138.889232391114 444.6644067780325L2138.9569932667628 470.8652786956585L2152.2155379354235 470.8652786956585L2152.3058857696224 482.2265188461463L2152.3058857696224 493.4974111624354L2139.3635585206566 493.4974111624354ZM2278.002310098578 489.9286717115864L2260.542591139677 490.7192152608251L2253.314764403781 490.62886742662636Q2246.8774812171223 490.62886742662636 2233.370480004415 490.78697613647415L2233.370480004415 490.78697613647415Q2232.421827745329 488.1668889447115 2229.53069705097 486.33734530218766Q2226.639566356612 484.5303886182134 2223.138587781411 484.5303886182134Q2219.637609206211 484.5303886182134 2217.424087268343 486.0663017995915Q2215.187978371925 487.6248019395193 2215.187978371925 490.4029978411296Q2215.187978371925 493.18119374273994 2217.288565517045 495.39471568060833Q2219.411739620715 497.63082457702643 2223.2063486570605 498.5343029190135Q2227.0235446519555 499.4603682195503 2230.795566729752 499.7765856392458Q2234.5675888075484 500.0928030589413 2239.604480564127 500.40902047863676Q2244.6639592792535 500.72523789833224 2247.2388725539176 501.1543901107761Q2249.813785828581 501.58354232322 2253.7890905333234 502.0804554113129L2253.7890905333234 502.0804554113129Q2260.858808559373 503.02910767039936 2266.302265569845 504.65536868597616Q2271.723135621768 506.28162970155296 2277.6860926788822 511.4314562508794L2277.6860926788822 511.4314562508794Q2278.8832014820155 511.99613021462136 2280.870853834387 514.3903478208872L2280.870853834387 514.3903478208872Q2284.439593285236 519.8563917899091 2285.3882455443227 530.2689796813105L2285.3882455443227 530.2689796813105Q2285.004267248978 541.6979807074474 2277.0536578394913 550.552068458921Q2269.1030484300054 559.4061562103946 2256.9738516888283 563.3814609151377L2256.9738516888283 563.3814609151377Q2256.002612471192 563.855787044681 2254.5796340825627 564.0138957545288L2254.5796340825627 564.0138957545288L2251.8917860151505 564.6463305939199Q2244.167046191161 566.8598525317882 2238.542893512292 566.8598525317882L2238.542893512292 566.8598525317882Q2235.13226277129 567.9892004592721 2227.5882186156978 567.9892004592721L2227.5882186156978 567.9892004592721L2225.600566263326 567.8988526250733L2219.7957179160585 567.8988526250733L2218.9374134911714 567.9892004592721Q2206.6275210815975 567.9892004592721 2192.555845905148 564.0138957545288L2192.555845905148 564.0138957545288L2192.555845905148 564.0816566301778Q2162.6281258268255 556.6957211844333 2162.5377779926266 538.3551108420951L2162.5377779926266 538.3551108420951Q2166.7615392414164 538.6713282617906 2174.2152355628095 538.6713282617906Q2181.691518842753 538.6713282617906 2194.430563464771 538.5583934690421Q2207.1696080867896 538.4454586762938 2213.7649999832947 538.4454586762938L2213.7649999832947 538.4454586762938Q2213.674652149097 538.919784805837 2213.674652149097 540.0265457747712L2213.674652149097 540.0265457747712Q2213.674652149097 543.5275243499713 2217.2659785584947 545.7410462878397Q2220.834718009344 547.9771551842578 2225.5102184291272 547.9771551842578Q2230.2083058074604 547.9771551842578 2232.8961538748717 546.1476115417338Q2235.6065889008332 544.31806789921 2235.6065889008332 541.4269372048512Q2235.6065889008332 538.5132195519428 2234.093262678005 536.5707411166705Q2232.5799364551767 534.6282626813983 2229.643631843718 533.6796104223118Q2226.7073272322605 532.7309581632253 2224.200174833246 532.2792189922318Q2221.7156093927815 531.850066779788 2217.740304688038 531.5338493600925Q2213.7649999832947 531.217631940397 2211.867695465122 530.9014145207016Q2209.9478039883998 530.585197101006 2206.2209558277027 530.0656970543635Q2202.4941076670057 529.5461970077208 2199.670737848296 529.1848056709259Q2196.8473680295865 528.8234143341311 2193.075345951791 528.1232186190912Q2189.3033238739945 527.4004359455014 2186.4121931796353 526.6550663133621Q2183.521062485277 525.8871097226731 2180.1781926199246 524.6222400438911Q2176.835322754572 523.3573703651092 2174.373344272657 521.8440441422808L2174.373344272657 521.8440441422808Q2162.379669282779 514.3903478208872 2162.379669282779 500.0928030589413L2162.379669282779 500.0928030589413Q2162.379669282779 487.30858451982374 2169.607496018675 480.3066273694237L2169.607496018675 480.3066273694237Q2178.6648663970964 471.6558222448972 2198.9931290918057 469.03573505313466L2198.9931290918057 469.03573505313466Q2201.0711292783762 468.7195176334391 2204.865738314722 467.88380016710107Q2208.682934309618 467.04808270076296 2210.1059126982473 467.04808270076296Q2211.551478045427 467.04808270076296 2212.0258041749703 467.2061914106107L2212.0258041749703 467.2061914106107L2222.099587688126 466.66410440541847L2236.0809150303767 467.2965392448094Q2236.871458579615 467.36430012045844 2240.688654574511 467.6127566645049L2240.688654574511 467.6127566645049Q2250.130003248276 468.3129523795449 2257.3126560670735 470.27801777336686Q2264.495308885871 472.22049620863913 2271.068113823827 477.84464888750887Q2277.6183318032336 483.49138852492825 2278.5669840623204 490.0867804214341L2278.5669840623204 490.0867804214341L2278.002310098578 489.9286717115864Z " fill="#697065" transform="matrix(0.3828670967524046,0,0,0.3828670967524046,0,102.6806622620987)"/></g></svg>