<?xml version="1.0" encoding="UTF-8" standalone="no" ?>
<!DOCTYPE svg PUBLIC "-//W3C//DTD SVG 1.1//EN" "http://www.w3.org/Graphics/SVG/1.1/DTD/svg11.dtd">
<svg xmlns="http://www.w3.org/2000/svg" xmlns:xlink="http://www.w3.org/1999/xlink" version="1.1" width="1280" height="1024" viewBox="0 0 1280 1024" xml:space="preserve">
<desc>Created with Fabric.js 4.4.0</desc>
<defs>
</defs>
<g transform="matrix(1 0 0 1 640 512)" id="background-logo"  >
<rect style="stroke: none; stroke-width: 0; stroke-dasharray: none; stroke-linecap: butt; stroke-dashoffset: 0; stroke-linejoin: miter; stroke-miterlimit: 4; fill: rgb(255,255,255); fill-opacity: 0; fill-rule: nonzero; opacity: 1;"  paint-order="stroke"  x="-640" y="-512" rx="0" ry="0" width="1280" height="1024" />
</g>
<g transform="matrix(1.9211538461538462 0 0 1.9211538461538462 640 343.6798325584605)" id="logo-logo"  >
<g style=""  paint-order="stroke"   >
		<g transform="matrix(0.15994224063080983 0 0 -0.15994224063080983 0 -2.842171e-14)"  >
<path style="stroke: none; stroke-width: 1; stroke-dasharray: none; stroke-linecap: butt; stroke-dashoffset: 0; stroke-linejoin: miter; stroke-miterlimit: 4; fill: rgb(90,83,69); fill-rule: nonzero; opacity: 1;"  paint-order="stroke"  transform=" translate(-1626.4168963695925, -1303.641)" d="M 2626.95 1732.93 C 2626.5899999999997 1736.5 2623.74 1738.88 2619.93 1739.1100000000001 C 2616.3399999999997 1739.0200000000002 2613.4199999999996 1736.18 2613.22 1732.6000000000001 C 2610.7 1686.3400000000001 2601.8799999999997 1640.45 2586.98 1596.2 C 2571 1549.27 2549.17 1510.69 2522.17 1481.55 C 2493.9300000000003 1450.73 2458.11 1430.01 2418.56 1421.6 C 2382.68 1413.75 2341.59 1414.6499999999999 2296.16 1424.28 C 2290.7799999999997 1425.48 2284.7599999999998 1426.91 2278.39 1428.42 C 2261.8599999999997 1432.3500000000001 2243.1299999999997 1436.79 2225.25 1439.8200000000002 C 2198.28 1444.66 2172.86 1447.7700000000002 2147.62 1449.3100000000002 C 2084.63 1452.9600000000003 2031.1 1446.5800000000002 1980.9299999999998 1429.67 C 1921.1999999999998 1410 1865.7599999999998 1370.27 1828.8999999999999 1320.68 C 1810.0099999999998 1295.74 1794.4499999999998 1267.5700000000002 1782.6699999999998 1237.03 C 1776.9299999999998 1222.2 1772.1699999999998 1206.94 1768.4599999999998 1191.66 C 1766.5499999999997 1183.88 1764.8999999999999 1176 1763.5299999999997 1167.8400000000001 C 1762.8299999999997 1163.7200000000003 1762.2099999999998 1159.5500000000002 1761.6499999999996 1155.17 L 1761.4599999999996 1153.5 C 1761.0499999999995 1150.07 1760.7099999999996 1146.83 1760.4399999999996 1141.99 C 1759.9999999999995 1141.06 1759.6899999999996 1140.07 1759.6899999999996 1138.98 C 1759.6899999999996 1096.02 1724.7299999999996 1061.06 1681.7799999999995 1061.06 L 1571.0599999999995 1061.06 C 1528.0999999999995 1061.06 1493.1499999999994 1096.02 1493.1499999999994 1138.98 C 1493.1499999999994 1140.07 1492.8399999999995 1141.06 1492.3899999999994 1141.99 C 1492.1299999999994 1146.83 1491.7799999999995 1150.07 1491.3699999999994 1153.5 L 1491.1799999999994 1155.17 C 1490.6299999999994 1159.5500000000002 1489.9999999999993 1163.72 1489.3199999999995 1167.8400000000001 C 1487.9299999999994 1176.0000000000002 1486.2799999999995 1183.88 1484.3799999999994 1191.66 C 1480.6699999999994 1206.94 1475.8899999999994 1222.2 1470.1799999999994 1237.03 C 1458.3899999999994 1267.57 1442.8199999999995 1295.74 1423.9499999999994 1320.68 C 1387.0799999999995 1370.27 1331.6399999999994 1410 1271.9099999999994 1429.67 C 1221.7399999999993 1446.5800000000002 1168.1999999999994 1452.96 1105.2099999999994 1449.3100000000002 C 1079.9799999999993 1447.7700000000002 1054.5599999999993 1444.66 1027.5899999999992 1439.8200000000002 C 1009.7199999999992 1436.7900000000002 990.9799999999992 1432.3500000000001 974.4409999999992 1428.42 C 968.0819999999992 1426.91 962.0629999999992 1425.48 956.6799999999993 1424.28 C 911.2499999999993 1414.6499999999999 870.1559999999993 1413.75 834.2729999999992 1421.6 C 794.7269999999992 1430.01 758.9099999999992 1450.73 730.6679999999992 1481.55 C 703.6559999999993 1510.69 681.8479999999992 1549.27 665.8629999999991 1596.2 C 650.9609999999991 1640.45 642.1329999999991 1686.3400000000001 639.6089999999991 1732.6000000000001 C 639.4139999999991 1736.18 636.4919999999992 1739.0200000000002 632.9059999999992 1739.1100000000001 C 629.0979999999992 1738.88 626.2499999999992 1736.5000000000002 625.8789999999991 1732.93 C 620.9449999999991 1684.96 622.6169999999992 1635.98 630.8399999999991 1587.31 C 640.5819999999991 1531.59 658.1449999999991 1485.22 684.5119999999991 1445.59 C 714.3549999999991 1399.97 758.9529999999992 1364.03 810.0589999999992 1344.4099999999999 C 849.3159999999991 1328.9499999999998 894.3519999999992 1321.11 943.9099999999992 1321.11 C 952.4409999999991 1321.11 960.9339999999992 1321.34 969.4489999999992 1321.77 C 978.0349999999992 1322.32 985.9019999999991 1322.92 993.3549999999991 1323.47 C 1009.7599999999991 1324.7 1023.9299999999992 1325.76 1039.3899999999992 1325.94 C 1061.6599999999992 1326.41 1083.5399999999993 1325.6200000000001 1103.7099999999991 1323.64 C 1147.3899999999992 1319.3600000000001 1185.9699999999991 1308.72 1215.279999999999 1292.8700000000001 C 1245.319999999999 1276.7500000000002 1267.739999999999 1254.39 1281.909999999999 1226.46 C 1288.7799999999988 1213 1293.849999999999 1198.1200000000001 1296.9799999999989 1182.27 C 1298.5399999999988 1174.4 1299.5799999999988 1166.49 1300.0799999999988 1158.72 C 1300.3199999999988 1154.84 1300.4399999999987 1151.01 1300.3999999999987 1147.58 C 1300.3999999999987 1147.58 1300.1899999999987 1136.71 1300.3999999999987 1136.28 C 1301.8699999999988 988.199 1422.6499999999987 868.172 1571.0599999999988 868.172 L 1681.7799999999988 868.172 C 1830.199999999999 868.172 1950.969999999999 988.1990000000001 1952.439999999999 1136.28 C 1952.659999999999 1136.71 1952.439999999999 1147.58 1952.439999999999 1147.58 C 1952.389999999999 1151.01 1952.5199999999988 1154.84 1952.7599999999989 1158.72 C 1953.2499999999989 1166.49 1954.2999999999988 1174.4 1955.8599999999988 1182.27 C 1958.9799999999987 1198.12 1964.0499999999988 1213 1970.9299999999987 1226.46 C 1985.0999999999988 1254.39 2007.5099999999986 1276.75 2037.5599999999986 1292.8700000000001 C 2066.8699999999985 1308.72 2105.4499999999985 1319.3600000000001 2149.1299999999987 1323.64 C 2169.299999999999 1325.6200000000001 2191.1899999999987 1326.41 2213.449999999999 1325.94 C 2228.9199999999987 1325.76 2243.069999999999 1324.7 2259.479999999999 1323.47 C 2266.939999999999 1322.92 2274.789999999999 1322.32 2283.379999999999 1321.77 C 2291.9099999999994 1321.34 2300.3899999999994 1321.11 2308.919999999999 1321.11 C 2358.4899999999993 1321.11 2403.5299999999993 1328.9499999999998 2442.769999999999 1344.4099999999999 C 2493.869999999999 1364.0299999999997 2538.489999999999 1399.9699999999998 2568.329999999999 1445.59 C 2594.689999999999 1485.22 2612.249999999999 1531.59 2621.989999999999 1587.31 C 2630.219999999999 1635.98 2631.889999999999 1684.96 2626.949999999999 1732.9299999999998" stroke-linecap="round" />
</g>
</g>
</g>
<g transform="matrix(1.9211538461538462 0 0 1.9211538461538462 641.0383836538462 614.6259311752647)" id="text-logo-path-group"  >
<g style=""  paint-order="stroke"   >
		<g transform="matrix(1 0 0 1 0 0)" id="text-logo-path-0"  >
<path style="stroke: none; stroke-width: 0; stroke-dasharray: none; stroke-linecap: butt; stroke-dashoffset: 0; stroke-linejoin: miter; stroke-miterlimit: 4; fill: rgb(90,83,69); fill-rule: nonzero; opacity: 1;"  paint-order="stroke"  transform=" translate(-286.42, 32.76)" d="M 20.96 0 L 4.14 0 Q 3.76 0 3.76 -0.47 L 3.76 -0.47 L 3.95 -65.05 Q 3.95 -65.42 4.32 -65.42 L 4.32 -65.42 L 22.37 -65.42 Q 27.73 -65.42 31.96 -62.84 Q 36.19 -60.25 38.63 -56.02 Q 41.08 -51.79 41.08 -46.81 L 41.08 -46.81 Q 41.08 -42.77 39.24 -39.29 Q 37.41 -35.81 34.87 -33.65 L 34.87 -33.65 Q 37.6 -30.93 39.1 -27.35 Q 40.61 -23.78 40.61 -19.83 L 40.61 -19.83 Q 40.61 -14.38 37.98 -9.87 Q 35.34 -5.36 30.88 -2.68 Q 26.41 0 20.96 0 L 20.96 0 Z M 15.23 -54.24 L 15.23 -39.48 L 22.37 -39.48 Q 25.66 -39.48 27.68 -41.78 Q 29.7 -44.09 29.7 -46.81 L 29.7 -46.81 Q 29.7 -49.82 27.54 -52.03 Q 25.38 -54.24 22.37 -54.24 L 22.37 -54.24 L 15.23 -54.24 Z M 15.23 -28.11 L 15.13 -11.47 L 20.96 -11.47 Q 24.35 -11.47 26.79 -13.96 Q 29.23 -16.45 29.23 -19.83 L 29.23 -19.83 Q 29.23 -23.22 26.79 -25.66 Q 24.35 -28.11 20.96 -28.11 L 20.96 -28.11 L 15.23 -28.11 Z M 64.67 0.94 L 64.67 0.94 Q 59.69 0.94 55.46 -1.65 Q 51.23 -4.23 48.74 -8.55 Q 46.25 -12.88 46.25 -18.05 L 46.25 -18.05 L 46.44 -65.05 Q 46.44 -65.42 46.81 -65.42 L 46.81 -65.42 L 57.34 -65.42 Q 57.72 -65.42 57.72 -65.05 L 57.72 -65.05 L 57.72 -18.05 Q 57.72 -14.85 59.74 -12.64 Q 61.76 -10.43 64.67 -10.43 L 64.67 -10.43 Q 67.68 -10.43 69.7 -12.64 Q 71.72 -14.85 71.72 -18.05 L 71.72 -18.05 L 71.72 -65.05 Q 71.72 -65.42 72.1 -65.42 L 72.1 -65.42 L 82.63 -65.42 Q 83 -65.42 83 -65.05 L 83 -65.05 L 83.19 -18.05 Q 83.19 -12.78 80.7 -8.46 Q 78.21 -4.14 74.03 -1.6 Q 69.84 0.94 64.67 0.94 Z M 101.61 0 L 91.09 0 Q 90.62 0 90.62 -0.47 L 90.62 -0.47 L 90.8 -65.05 Q 90.8 -65.42 91.18 -65.42 L 91.18 -65.42 L 121.26 -65.42 Q 121.73 -65.42 121.73 -65.05 L 121.73 -65.05 L 121.73 -54.43 Q 121.73 -54.05 121.35 -54.05 L 121.35 -54.05 L 102.08 -54.05 L 102.08 -39.48 L 121.35 -39.48 Q 121.73 -39.48 121.73 -39.01 L 121.73 -39.01 L 121.82 -28.39 Q 121.82 -28.01 121.35 -28.01 L 121.35 -28.01 L 102.08 -28.01 L 102.08 -0.47 Q 102.08 0 101.61 0 L 101.61 0 Z M 142.13 0 L 131.6 0 Q 131.13 0 131.13 -0.47 L 131.13 -0.47 L 131.32 -65.05 Q 131.32 -65.42 131.69 -65.42 L 131.69 -65.42 L 161.77 -65.42 Q 162.24 -65.42 162.24 -65.05 L 162.24 -65.05 L 162.24 -54.43 Q 162.24 -54.05 161.87 -54.05 L 161.87 -54.05 L 142.6 -54.05 L 142.6 -39.48 L 161.87 -39.48 Q 162.24 -39.48 162.24 -39.01 L 162.24 -39.01 L 162.34 -28.39 Q 162.34 -28.01 161.87 -28.01 L 161.87 -28.01 L 142.6 -28.01 L 142.6 -0.47 Q 142.6 0 142.13 0 L 142.13 0 Z M 161.96 -0.47 L 161.96 -0.47 L 173.62 -65.05 Q 173.71 -65.42 174.09 -65.42 L 174.09 -65.42 L 187.72 -65.42 Q 188.09 -65.42 188.19 -65.05 L 188.19 -65.05 L 199.37 -0.47 Q 199.47 0 199 0 L 199 0 L 188.56 0 Q 188.19 0 188.09 -0.47 L 188.09 -0.47 L 187.06 -7.33 L 174.28 -7.33 L 173.24 -0.47 Q 173.15 0 172.77 0 L 172.77 0 L 162.34 0 Q 161.96 0 161.96 -0.47 Z M 180.39 -43.8 L 176.16 -17.39 L 185.18 -17.39 L 181.33 -43.8 L 180.76 -47.28 L 180.39 -43.8 Z M 236.03 0 L 205.67 0 Q 205.3 0 205.3 -0.47 L 205.3 -0.47 L 205.39 -64.95 Q 205.39 -65.42 205.86 -65.42 L 205.86 -65.42 L 216.29 -65.42 Q 216.76 -65.42 216.76 -64.95 L 216.76 -64.95 L 216.67 -11.56 L 236.03 -11.56 Q 236.5 -11.56 236.5 -11.09 L 236.5 -11.09 L 236.5 -0.47 Q 236.5 0 236.03 0 L 236.03 0 Z M 258.69 0.94 L 258.69 0.94 Q 253.61 0.94 249.43 -1.65 Q 245.25 -4.23 242.71 -8.51 Q 240.17 -12.78 240.17 -17.95 L 240.17 -17.95 L 240.26 -47.75 Q 240.26 -52.92 242.75 -57.15 Q 245.25 -61.38 249.48 -63.92 Q 253.71 -66.46 258.69 -66.46 L 258.69 -66.46 Q 263.76 -66.46 267.9 -63.92 Q 272.04 -61.38 274.53 -57.15 Q 277.02 -52.92 277.02 -47.75 L 277.02 -47.75 L 277.11 -17.95 Q 277.11 -12.78 274.62 -8.51 Q 272.13 -4.23 267.95 -1.65 Q 263.76 0.94 258.69 0.94 Z M 258.69 -10.43 L 258.69 -10.43 Q 261.51 -10.43 263.62 -12.74 Q 265.74 -15.04 265.74 -17.95 L 265.74 -17.95 L 265.64 -47.75 Q 265.64 -50.85 263.67 -53.02 Q 261.7 -55.18 258.69 -55.18 L 258.69 -55.18 Q 255.77 -55.18 253.71 -53.06 Q 251.64 -50.95 251.64 -47.75 L 251.64 -47.75 L 251.64 -17.95 Q 251.64 -14.85 253.71 -12.64 Q 255.77 -10.43 258.69 -10.43 Z M 309.26 0 L 298.64 0 Q 298.17 0 298.17 -0.47 L 298.17 -0.47 L 298.26 -65.05 Q 298.26 -65.42 298.64 -65.42 L 298.64 -65.42 L 309.17 -65.42 Q 309.54 -65.42 309.54 -65.05 L 309.54 -65.05 L 309.64 -0.47 Q 309.64 0 309.26 0 L 309.26 0 Z M 328.91 0 L 318.28 0 Q 317.91 0 317.91 -0.47 L 317.91 -0.47 L 318.1 -65.05 Q 318.1 -65.42 318.47 -65.42 L 318.47 -65.42 L 329.94 -65.42 Q 330.32 -65.42 330.6 -65.05 L 330.6 -65.05 L 339.15 -52.64 L 347.71 -65.05 Q 347.99 -65.42 348.36 -65.42 L 348.36 -65.42 L 359.93 -65.42 Q 360.3 -65.42 360.3 -65.05 L 360.3 -65.05 L 360.49 -0.47 Q 360.49 0 360.11 0 L 360.11 0 L 349.49 0 Q 349.12 0 349.12 -0.47 L 349.12 -0.47 L 349.02 -48.41 L 339.15 -34.12 L 329.38 -48.41 L 329.28 -0.47 Q 329.28 0 328.91 0 L 328.91 0 Z M 379.38 0 L 368.86 0 Q 368.39 0 368.39 -0.47 L 368.39 -0.47 L 368.57 -65.05 Q 368.57 -65.42 368.95 -65.42 L 368.95 -65.42 L 387 -65.42 Q 395.65 -65.42 400.67 -60.16 Q 405.7 -54.9 405.7 -45.87 L 405.7 -45.87 Q 405.7 -39.2 403.07 -34.31 Q 400.44 -29.42 396.21 -26.79 Q 391.98 -24.16 387 -24.16 L 387 -24.16 L 379.85 -24.16 L 379.85 -0.47 Q 379.85 0 379.38 0 L 379.38 0 Z M 379.85 -54.14 L 379.85 -35.53 L 387 -35.53 Q 390.01 -35.53 392.21 -38.4 Q 394.42 -41.27 394.42 -45.87 L 394.42 -45.87 Q 394.42 -49.54 392.45 -51.89 Q 390.48 -54.24 387 -54.24 L 387 -54.24 L 379.85 -54.14 Z M 428.55 0.94 L 428.55 0.94 Q 423.47 0.94 419.29 -1.65 Q 415.1 -4.23 412.57 -8.51 Q 410.03 -12.78 410.03 -17.95 L 410.03 -17.95 L 410.12 -47.75 Q 410.12 -52.92 412.61 -57.15 Q 415.1 -61.38 419.33 -63.92 Q 423.56 -66.46 428.55 -66.46 L 428.55 -66.46 Q 433.62 -66.46 437.76 -63.92 Q 441.89 -61.38 444.38 -57.15 Q 446.88 -52.92 446.88 -47.75 L 446.88 -47.75 L 446.97 -17.95 Q 446.97 -12.78 444.48 -8.51 Q 441.99 -4.23 437.8 -1.65 Q 433.62 0.94 428.55 0.94 Z M 428.55 -10.43 L 428.55 -10.43 Q 431.37 -10.43 433.48 -12.74 Q 435.6 -15.04 435.6 -17.95 L 435.6 -17.95 L 435.5 -47.75 Q 435.5 -50.85 433.53 -53.02 Q 431.55 -55.18 428.55 -55.18 L 428.55 -55.18 Q 425.63 -55.18 423.56 -53.06 Q 421.5 -50.95 421.5 -47.75 L 421.5 -47.75 L 421.5 -17.95 Q 421.5 -14.85 423.56 -12.64 Q 425.63 -10.43 428.55 -10.43 Z M 465.11 0 L 454.49 0 Q 454.11 0 454.11 -0.47 L 454.11 -0.47 L 454.3 -65.05 Q 454.3 -65.42 454.68 -65.42 L 454.68 -65.42 L 473.67 -65.42 Q 478.74 -65.42 483.02 -62.93 Q 487.3 -60.44 489.83 -56.26 Q 492.37 -52.08 492.37 -46.81 L 492.37 -46.81 Q 492.37 -43.33 491.34 -40.56 Q 490.3 -37.79 488.89 -35.86 Q 487.48 -33.93 486.36 -32.99 L 486.36 -32.99 Q 491.43 -27.35 491.43 -19.74 L 491.43 -19.74 L 491.53 -0.47 Q 491.53 0 491.06 0 L 491.06 0 L 480.43 0 Q 480.06 0 480.06 -0.28 L 480.06 -0.28 L 480.06 -19.74 Q 480.06 -23.12 477.66 -25.61 Q 475.26 -28.11 471.79 -28.11 L 471.79 -28.11 L 465.58 -28.11 L 465.49 -0.47 Q 465.49 0 465.11 0 L 465.11 0 Z M 465.58 -54.14 L 465.58 -39.39 L 473.67 -39.39 Q 476.58 -39.39 478.84 -41.55 Q 481.09 -43.71 481.09 -46.81 L 481.09 -46.81 Q 481.09 -49.82 478.88 -51.98 Q 476.67 -54.14 473.67 -54.14 L 473.67 -54.14 L 465.58 -54.14 Z M 517.56 0 L 506.94 0 Q 506.57 0 506.57 -0.47 L 506.57 -0.47 L 506.57 -54.05 L 494.35 -54.05 Q 493.88 -54.05 493.88 -54.52 L 493.88 -54.52 L 493.97 -65.05 Q 493.97 -65.42 494.35 -65.42 L 494.35 -65.42 L 530.07 -65.42 Q 530.54 -65.42 530.54 -65.05 L 530.54 -65.05 L 530.54 -54.52 Q 530.54 -54.05 530.16 -54.05 L 530.16 -54.05 L 517.85 -54.05 L 517.94 -0.47 Q 517.94 0 517.56 0 L 517.56 0 Z M 550.65 0.94 L 550.65 0.94 Q 545.58 0.94 541.39 -1.65 Q 537.21 -4.23 534.72 -8.51 Q 532.23 -12.78 532.23 -17.95 L 532.23 -17.95 L 532.23 -22.28 Q 532.23 -22.75 532.7 -22.75 L 532.7 -22.75 L 543.23 -22.75 Q 543.6 -22.75 543.6 -22.28 L 543.6 -22.28 L 543.6 -17.95 Q 543.6 -14.85 545.67 -12.64 Q 547.74 -10.43 550.65 -10.43 L 550.65 -10.43 Q 553.57 -10.43 555.63 -12.69 Q 557.7 -14.95 557.7 -17.95 L 557.7 -17.95 Q 557.7 -21.43 553.19 -23.97 L 553.19 -23.97 Q 551.69 -24.82 548.49 -26.6 Q 545.29 -28.39 542.47 -29.99 L 542.47 -29.99 Q 537.3 -32.99 534.81 -37.55 Q 532.32 -42.11 532.32 -47.85 L 532.32 -47.85 Q 532.32 -53.11 534.86 -57.29 Q 537.4 -61.48 541.58 -63.92 Q 545.76 -66.36 550.65 -66.36 L 550.65 -66.36 Q 555.63 -66.36 559.82 -63.87 Q 564 -61.38 566.49 -57.2 Q 568.98 -53.02 568.98 -47.85 L 568.98 -47.85 L 568.98 -40.14 Q 568.98 -39.76 568.61 -39.76 L 568.61 -39.76 L 558.08 -39.76 Q 557.7 -39.76 557.7 -40.14 L 557.7 -40.14 L 557.61 -47.85 Q 557.61 -51.14 555.54 -53.2 Q 553.47 -55.27 550.65 -55.27 L 550.65 -55.27 Q 547.74 -55.27 545.67 -53.06 Q 543.6 -50.85 543.6 -47.85 L 543.6 -47.85 Q 543.6 -44.74 544.92 -42.68 Q 546.23 -40.61 549.71 -38.73 L 549.71 -38.73 Q 550.18 -38.45 551.54 -37.74 Q 552.91 -37.04 554.51 -36.14 Q 556.1 -35.25 557.37 -34.59 Q 558.64 -33.93 558.92 -33.75 L 558.92 -33.75 Q 563.62 -31.11 566.35 -27.31 Q 569.08 -23.5 569.08 -17.95 L 569.08 -17.95 Q 569.08 -12.6 566.58 -8.32 Q 564.09 -4.04 559.91 -1.55 Q 555.73 0.94 550.65 0.94 Z" stroke-linecap="round" />
</g>
</g>
</g>
<g transform="matrix(1.9211538461538462 0 0 1.9211538461538462 652.475973076923 739.484591244711)" id="tagline-a7a27f60-a167-4902-9bde-ff4c361ff8d5-logo-path-group"  >
<g style=""  paint-order="stroke"   >
		<g transform="matrix(1 0 0 1 0 0)" id="tagline-a7a27f60-a167-4902-9bde-ff4c361ff8d5-logo-path-0"  >
<path style="stroke: none; stroke-width: 0; stroke-dasharray: none; stroke-linecap: butt; stroke-dashoffset: 0; stroke-linejoin: miter; stroke-miterlimit: 4; fill: rgb(90,83,69); fill-rule: nonzero; opacity: 1;"  paint-order="stroke"  transform=" translate(-137.73499999999999, 21.850038846757652)" d="M 17.27 3.4 L 14.55 2.58 L 14.62 2.38 Q 14.62 1.7 13.46 1.63 L 13.46 1.63 Q 12.04 0.75 10.91 -0.68 Q 9.79 -2.11 9.38 -3.2 L 9.38 -3.2 Q 8.91 -4.28 8.91 -4.35 L 8.91 -4.35 Q 8.91 -4.56 9.15 -4.69 Q 9.38 -4.83 9.72 -5.03 L 9.72 -5.03 Q 10.13 -5.37 10.61 -5.37 L 10.61 -5.37 Q 10.88 -5.37 11.12 -5.07 Q 11.36 -4.76 11.76 -4.01 L 11.76 -4.01 Q 12.58 -2.58 14.55 -1.73 Q 16.52 -0.88 19.04 -0.88 L 19.04 -0.88 Q 22.1 -0.88 24.75 -2.11 L 24.75 -2.11 Q 26.52 -2.86 27.34 -3.57 Q 28.15 -4.28 28.15 -5.17 L 28.15 -5.17 Q 28.15 -5.98 27.4 -7.14 L 27.4 -7.14 Q 27.2 -7.68 26.83 -8.13 Q 26.45 -8.57 25.77 -9.18 L 25.77 -9.18 Q 25.36 -9.52 24.21 -10.68 L 24.21 -10.68 Q 23.12 -11.08 21.96 -11.76 L 21.96 -11.76 L 20.54 -12.44 Q 18.7 -13.26 16.29 -15.27 Q 13.87 -17.27 13.06 -18.77 L 13.06 -18.77 Q 12.1 -19.65 11.56 -21.22 Q 11.02 -22.78 11.02 -24.62 L 11.02 -24.62 Q 11.02 -27.06 12.04 -29.1 L 12.04 -29.1 Q 12.85 -30.94 15.64 -34.2 Q 18.43 -37.47 19.92 -38.49 L 19.92 -38.49 L 21.69 -40.19 Q 21.76 -40.46 21.9 -40.49 Q 22.03 -40.53 22.1 -40.53 L 22.1 -40.53 Q 22.3 -40.66 23.53 -41.17 Q 24.75 -41.68 26.11 -42.98 L 26.11 -42.98 Q 30.74 -45.22 33.56 -46.21 Q 36.38 -47.19 38.22 -47.19 L 38.22 -47.19 Q 40.8 -47.06 42.6 -45.59 Q 44.4 -44.13 44.74 -41.75 L 44.74 -41.75 Q 44.88 -41.34 44.88 -40.53 L 44.88 -40.53 Q 44.88 -38.08 43.11 -35.26 Q 41.34 -32.44 39.1 -31.14 L 39.1 -31.14 Q 37.4 -30.4 36.72 -30.4 L 36.72 -30.4 Q 36.24 -30.4 36.07 -30.74 Q 35.9 -31.08 35.97 -31.82 L 35.97 -31.82 Q 35.97 -32.44 36.41 -33.22 Q 36.86 -34 38.42 -35.77 L 38.42 -35.77 Q 41.21 -39.78 41.21 -41.75 L 41.21 -41.75 Q 41.21 -42.91 40.19 -42.98 L 40.19 -42.98 Q 39.44 -43.18 36.41 -42.64 Q 33.39 -42.09 33.39 -41.75 L 33.39 -41.75 Q 33.39 -41.68 33.35 -41.51 Q 33.32 -41.34 33.12 -41.41 L 33.12 -41.41 Q 32.84 -41.48 28.08 -38.59 Q 23.32 -35.7 23.19 -35.36 L 23.19 -35.36 Q 23.12 -35.02 22.68 -34.65 Q 22.24 -34.27 21.62 -34 L 21.62 -34 Q 20.33 -33.25 19.24 -31.82 Q 18.16 -30.4 16.66 -27.74 L 16.66 -27.74 Q 15.84 -26.59 15.33 -25.23 Q 14.82 -23.87 14.82 -22.78 L 14.82 -22.78 Q 14.82 -22.03 15.03 -21.49 L 15.03 -21.49 Q 15.37 -20.33 17.14 -18.67 Q 18.9 -17 21.56 -15.44 L 21.56 -15.44 Q 25.02 -13.46 27.37 -11.59 Q 29.72 -9.72 30.33 -8.43 L 30.33 -8.43 Q 31.89 -6.26 31.89 -3.6 L 31.89 -3.6 Q 31.89 -2.65 31.69 -1.84 L 31.69 -1.84 Q 31.14 -0.68 29.99 0.44 Q 28.83 1.56 28.02 1.5 L 28.02 1.5 Q 27.34 1.7 26.86 2.01 Q 26.38 2.31 26.04 2.45 L 26.04 2.45 Q 25.3 2.92 22.47 3.23 Q 19.65 3.54 17.27 3.4 L 17.27 3.4 Z M 48.55 -29.78 Q 48.08 -30.26 47.74 -31.42 Q 47.4 -32.57 47.74 -32.57 L 47.74 -32.57 Q 48.28 -32.64 48.99 -33.76 Q 49.71 -34.88 49.64 -35.63 L 49.64 -35.63 Q 49.64 -35.9 49.84 -36.14 Q 50.05 -36.38 50.32 -36.45 L 50.32 -36.45 Q 50.86 -36.79 51.27 -36.79 L 51.27 -36.79 Q 52.43 -36.79 53.38 -35.16 L 53.38 -35.16 Q 53.79 -34.27 53.79 -33.59 L 53.79 -33.59 Q 53.79 -32.98 53.45 -32.33 Q 53.11 -31.69 52.22 -30.67 L 52.22 -30.67 Q 51.07 -29.1 50.05 -29.1 L 50.05 -29.1 Q 49.37 -29.1 48.55 -29.78 L 48.55 -29.78 Z M 41.96 -2.18 Q 41 -3.13 41 -4.9 L 41 -4.9 Q 41 -5.85 41.34 -6.53 L 41.34 -6.53 Q 41.34 -6.87 41.48 -7.34 Q 41.62 -7.82 41.62 -7.96 L 41.62 -7.96 Q 41.55 -8.36 42.16 -10.2 L 42.16 -10.2 Q 43.38 -12.92 45.42 -19.79 L 45.42 -19.79 Q 45.42 -20.13 45.7 -20.37 Q 45.97 -20.6 46.51 -20.67 L 46.51 -20.67 Q 47.06 -20.81 47.26 -20.81 L 47.26 -20.81 Q 47.67 -20.81 47.97 -20.5 Q 48.28 -20.2 48.82 -19.38 L 48.82 -19.38 Q 49.23 -18.97 49.23 -18.16 L 49.23 -18.16 Q 49.23 -16.86 48.35 -15.03 L 48.35 -15.03 Q 47.46 -13.06 47.19 -11.63 L 47.19 -11.63 Q 46.38 -9.79 45.9 -8.23 L 45.9 -8.23 Q 45.76 -7.82 45.49 -6.6 Q 45.22 -5.37 44.74 -4.62 L 44.74 -4.62 Q 44.34 -2.72 44 -1.97 Q 43.66 -1.22 43.25 -1.22 L 43.25 -1.22 Q 42.77 -1.22 41.96 -2.18 L 41.96 -2.18 Z M 78 -3.13 Q 76.64 -3.13 75.75 -3.71 Q 74.87 -4.28 74.26 -5.64 L 74.26 -5.64 Q 73.64 -7.82 73.64 -10 L 73.64 -10 Q 73.64 -11.02 73.85 -11.42 L 73.85 -11.42 Q 74.12 -11.7 74.09 -12.61 Q 74.05 -13.53 74.05 -13.94 L 74.05 -13.94 Q 73.98 -15.5 73.1 -15.5 L 73.1 -15.5 Q 72.49 -15.5 71.74 -15.03 L 71.74 -15.03 Q 67.93 -12.65 65.35 -10.95 Q 62.76 -9.25 60.38 -7.14 L 60.38 -7.14 Q 59.43 -6.05 58.96 -5.24 Q 58.48 -4.42 58.28 -4.11 Q 58.07 -3.81 57.73 -3.81 L 57.73 -3.81 Q 57.32 -3.67 57.19 -3.67 L 57.19 -3.67 Q 56.85 -3.67 56.37 -4.05 Q 55.9 -4.42 55.76 -4.56 L 55.76 -4.56 Q 55.49 -4.83 54.88 -5.47 Q 54.26 -6.12 54.2 -6.39 L 54.2 -6.39 Q 54.2 -6.94 54.64 -8.91 Q 55.08 -10.88 55.35 -11.42 L 55.35 -11.42 Q 55.56 -11.42 55.96 -12.27 Q 56.37 -13.12 56.71 -13.6 L 56.71 -13.6 Q 56.92 -14.62 58.48 -18.29 L 58.48 -18.29 Q 59.43 -19.92 59.81 -21.01 Q 60.18 -22.1 60.32 -23.73 L 60.32 -23.73 L 60.32 -23.87 Q 60.32 -24.14 60.52 -24.31 Q 60.72 -24.48 60.93 -24.48 L 60.93 -24.48 Q 61.4 -24.82 61.81 -24.82 L 61.81 -24.82 Q 62.7 -24.82 63.58 -23.73 L 63.58 -23.73 Q 64.6 -22.44 64.6 -21.01 L 64.6 -21.01 Q 64.6 -19.24 62.36 -15.44 L 62.36 -15.44 Q 62.15 -14.96 61.78 -14.08 Q 61.4 -13.19 61.4 -12.85 L 61.4 -12.85 L 65.21 -15.44 Q 65.76 -16.05 68.14 -17.61 Q 70.52 -19.18 71.47 -19.38 L 71.47 -19.38 Q 73.1 -20.13 73.51 -20.13 L 73.51 -20.13 Q 74.32 -20.13 75.72 -18.9 Q 77.11 -17.68 77.38 -16.86 L 77.38 -16.86 Q 77.38 -16.12 77.52 -15.78 L 77.52 -15.78 Q 77.86 -14.42 77.86 -12.58 L 77.86 -12.58 Q 77.86 -11.36 77.69 -10.37 Q 77.52 -9.38 77.25 -9.25 L 77.25 -9.25 Q 77.25 -9.18 77.32 -9.04 Q 77.38 -8.91 77.59 -8.91 L 77.59 -8.91 L 77.59 -8.57 Q 77.04 -8.57 77.45 -7.41 Q 77.86 -6.26 78.54 -5.64 L 78.54 -5.64 Q 79.22 -4.96 79.22 -4.28 L 79.22 -4.28 Q 79.22 -3.47 78 -3.13 L 78 -3.13 Z M 91.94 -0.75 Q 90.98 -0.61 90.51 -0.61 L 90.51 -0.61 Q 87.99 -0.61 86.36 -2.18 Q 84.73 -3.74 84.73 -6.53 L 84.73 -6.53 Q 84.46 -9.52 86.05 -13.94 Q 87.65 -18.36 90.1 -21.35 L 90.1 -21.35 Q 91.8 -23.32 93.02 -24.55 Q 94.25 -25.77 95.27 -26.18 L 95.27 -26.18 Q 96.7 -26.79 98.46 -26.79 L 98.46 -26.79 Q 99.69 -26.52 100.88 -25.77 Q 102.07 -25.02 102.07 -24.28 L 102.07 -24.28 L 102.41 -23.94 Q 102.82 -23.94 103.16 -22.95 Q 103.5 -21.96 103.5 -20.81 L 103.5 -20.81 Q 103.5 -19.86 103.16 -19.18 L 103.16 -19.18 Q 102.88 -17.88 102.24 -16.93 Q 101.59 -15.98 100.98 -15.98 L 100.98 -15.98 Q 100.23 -15.98 100.23 -15.57 L 100.23 -15.57 Q 100.23 -15.3 99.96 -15.3 L 99.96 -15.3 Q 99.62 -15.3 99.14 -15.71 Q 98.67 -16.12 98.46 -16.66 L 98.46 -16.66 Q 98.46 -16.86 98.74 -17.82 Q 99.01 -18.77 99.28 -19.92 L 99.28 -19.92 Q 99.48 -20.74 99.48 -21.35 L 99.48 -21.35 Q 99.48 -22.71 98.46 -22.71 L 98.46 -22.71 Q 97.92 -22.71 97.38 -22.44 L 97.38 -22.44 Q 94.66 -20.94 92.55 -17.68 Q 90.44 -14.42 89.01 -8.7 L 89.01 -8.7 Q 88.67 -7.21 88.67 -6.32 L 88.67 -6.32 Q 88.67 -5.64 88.77 -5.24 Q 88.88 -4.83 89.01 -4.76 L 89.01 -4.76 Q 89.35 -4.62 90.44 -4.62 L 90.44 -4.62 Q 92.96 -4.62 93.98 -5.24 L 93.98 -5.24 Q 96.15 -6.39 98.8 -8.36 L 98.8 -8.36 Q 99.08 -8.57 99.62 -9.08 Q 100.16 -9.59 100.64 -9.79 L 100.64 -9.79 Q 101.12 -10.54 101.52 -10.71 Q 101.93 -10.88 102.82 -10.88 L 102.82 -10.88 Q 103.7 -10.61 104.24 -10.17 Q 104.79 -9.72 104.24 -9.45 L 104.24 -9.45 Q 104.04 -9.45 103.97 -9.32 Q 103.9 -9.18 103.9 -9.11 L 103.9 -9.11 Q 104.04 -8.77 102.82 -7.41 Q 101.59 -6.05 100.1 -4.86 Q 98.6 -3.67 98.06 -3.67 L 98.06 -3.67 Q 97.78 -3.67 97.58 -3.6 Q 97.38 -3.54 97.38 -3.26 L 97.38 -3.26 Q 97.38 -2.99 95.3 -2.01 Q 93.23 -1.02 91.94 -0.75 L 91.94 -0.75 Z M 120.63 -2.38 Q 118.93 -0.88 116.55 -0.88 L 116.55 -0.88 Q 114.85 -0.88 113.32 -1.7 Q 111.79 -2.52 110.77 -3.94 L 110.77 -3.94 Q 109.89 -5.03 109.48 -6.39 Q 109.07 -7.75 109.07 -9.72 L 109.07 -9.72 Q 109.07 -10.4 109.21 -12.44 L 109.21 -12.44 Q 109.41 -14.96 110.87 -17.68 Q 112.34 -20.4 114.51 -22.54 Q 116.69 -24.68 118.8 -25.5 L 118.8 -25.5 Q 119.88 -26.18 120.77 -26.18 L 120.77 -26.18 Q 121.24 -26.18 121.72 -26.11 Q 122.2 -26.04 122.74 -25.98 L 122.74 -25.98 Q 124.24 -25.77 125.02 -25.4 Q 125.8 -25.02 126.34 -24.28 L 126.34 -24.28 Q 128.04 -22.58 128.04 -20.33 L 128.04 -20.33 Q 127.77 -18.7 125.94 -16.59 Q 124.1 -14.48 121.52 -13.19 L 121.52 -13.19 Q 120.29 -12.78 118.73 -12.78 L 118.73 -12.78 Q 116.62 -12.78 115.33 -13.67 L 115.33 -13.67 Q 114.72 -13.87 114.38 -13.87 L 114.38 -13.87 Q 113.76 -13.87 113.46 -13.06 Q 113.15 -12.24 112.88 -10.06 L 112.88 -10.06 Q 112.81 -9.59 112.81 -8.7 L 112.81 -8.7 Q 112.81 -5.24 115.12 -4.9 L 115.12 -4.9 Q 116.69 -4.56 117.37 -4.56 L 117.37 -4.56 Q 118.18 -4.56 119.2 -5.1 L 119.2 -5.1 L 120.5 -5.85 Q 120.9 -6.05 121.24 -6.39 Q 121.58 -6.73 121.86 -7 L 121.86 -7 Q 121.99 -7.14 122.26 -7.45 Q 122.54 -7.75 122.77 -7.85 Q 123.01 -7.96 123.22 -7.96 L 123.22 -7.96 Q 123.49 -7.96 123.83 -7.65 Q 124.17 -7.34 124.37 -7.21 L 124.37 -7.21 Q 124.98 -7.21 124.64 -6.36 Q 124.3 -5.51 123.18 -4.39 Q 122.06 -3.26 120.63 -2.38 L 120.63 -2.38 Z M 120.56 -16.8 Q 121.72 -17.27 122.91 -18.5 Q 124.1 -19.72 124.1 -20.54 L 124.1 -20.54 Q 124.1 -21.35 123.49 -21.9 Q 122.88 -22.44 121.79 -22.44 L 121.79 -22.44 Q 120.97 -22.44 120.56 -22.3 L 120.56 -22.3 Q 119.61 -22.03 118.32 -20.84 Q 117.03 -19.65 116.08 -18.43 Q 115.12 -17.2 115.33 -17 L 115.33 -17 Q 115.67 -16.39 117.98 -16.39 L 117.98 -16.39 Q 119.54 -16.39 120.56 -16.8 L 120.56 -16.8 Z M 151.23 -1.56 Q 150.76 -1.77 149.87 -2.52 Q 148.99 -3.26 148.72 -3.88 L 148.72 -3.88 Q 148.65 -3.94 148.65 -4.28 L 148.65 -4.28 Q 148.65 -4.76 148.85 -5.37 Q 149.06 -5.98 149.26 -5.98 L 149.26 -5.98 Q 149.46 -5.78 150.38 -7.04 Q 151.3 -8.3 151.37 -8.64 L 151.37 -8.64 Q 151.44 -8.91 151.81 -9.15 Q 152.18 -9.38 152.32 -9.45 L 152.32 -9.45 Q 152.66 -10 153.31 -10.64 Q 153.95 -11.29 154.16 -11.56 L 154.16 -11.56 Q 154.43 -11.9 155.18 -12.68 Q 155.92 -13.46 156.54 -14.08 L 156.54 -14.08 Q 158.17 -15.57 158.92 -16.39 L 158.92 -16.39 Q 162.45 -20.2 162.59 -20.81 L 162.59 -20.81 Q 162.66 -20.88 162.86 -21.08 Q 163.06 -21.28 163.4 -21.49 L 163.4 -21.49 Q 164.42 -22.17 165.31 -23.05 L 165.31 -23.05 Q 165.38 -23.53 166.06 -24.55 Q 166.74 -25.57 167.42 -26.25 L 167.42 -26.25 Q 167.96 -27 168.4 -27.91 Q 168.84 -28.83 169.05 -29.51 L 169.05 -29.51 L 169.18 -30.12 Q 169.18 -30.4 168.84 -30.57 Q 168.5 -30.74 168.06 -30.87 Q 167.62 -31.01 167.35 -31.08 L 167.35 -31.08 Q 165.78 -31.55 164.63 -31.55 L 164.63 -31.55 Q 162.11 -31.55 159.46 -29.72 L 159.46 -29.72 Q 158.51 -29.51 157.96 -29.24 L 157.96 -29.24 Q 156.74 -28.83 156.4 -28.9 L 156.4 -28.9 Q 156.2 -28.97 155.79 -29.51 Q 155.38 -30.06 155.04 -30.4 L 155.04 -30.4 L 154.36 -31.82 L 156.47 -32.98 Q 160.68 -35.77 163.81 -35.77 L 163.81 -35.77 Q 164.9 -35.77 165.72 -35.5 L 165.72 -35.5 Q 166.33 -35.5 166.94 -35.36 Q 167.55 -35.22 167.69 -35.16 L 167.69 -35.16 Q 168.5 -35.22 169.83 -33.86 Q 171.16 -32.5 171.84 -31.08 L 171.84 -31.08 Q 172.65 -29.85 172.65 -28.56 L 172.65 -28.56 Q 172.65 -26.52 170.48 -23.32 L 170.48 -23.32 Q 168.98 -21.56 165.92 -18.22 Q 162.86 -14.89 162.18 -14.35 L 162.18 -14.35 Q 161.36 -13.94 158.24 -10.4 Q 155.11 -6.87 155.38 -6.87 L 155.38 -6.87 L 155.38 -6.73 Q 155.38 -7.14 159.63 -7.79 Q 163.88 -8.43 166.19 -8.43 L 166.19 -8.43 Q 166.94 -8.43 167.21 -8.3 L 167.21 -8.3 Q 167.35 -8.02 167.45 -8.06 Q 167.55 -8.09 167.55 -8.16 L 167.55 -8.16 Q 167.62 -8.43 168.5 -8.43 L 168.5 -8.43 Q 170.07 -8.43 172.18 -7.82 L 172.18 -7.82 Q 172.38 -7.75 172.89 -7.62 Q 173.4 -7.48 173.6 -7.34 Q 173.81 -7.21 173.81 -7.07 L 173.81 -7.07 Q 173.88 -7 174.05 -6.7 Q 174.22 -6.39 174.56 -5.98 L 174.56 -5.98 Q 175.17 -5.51 175.17 -5.17 L 175.17 -5.17 Q 175.17 -4.69 174.01 -4.69 L 174.01 -4.69 Q 173.2 -4.69 171.29 -5.03 L 171.29 -5.03 Q 169.52 -5.03 168.37 -4.83 L 168.37 -4.83 Q 168.16 -4.69 167.11 -4.66 Q 166.06 -4.62 165.51 -4.62 L 165.51 -4.62 Q 165.17 -4.69 164.56 -4.69 L 164.56 -4.69 Q 163 -4.69 160.14 -3.74 L 160.14 -3.74 Q 158.64 -3.13 155.24 -2.24 Q 151.84 -1.36 151.23 -1.56 L 151.23 -1.56 Z M 190.06 -1.43 Q 189.31 -1.43 187.54 -2.38 Q 185.78 -3.33 184.76 -4.22 L 184.76 -4.22 Q 182.85 -6.05 181.73 -8.87 Q 180.61 -11.7 180.61 -14.62 L 180.61 -14.62 Q 180.61 -15.23 180.74 -16.59 L 180.74 -16.59 Q 181.49 -20.88 183.97 -25.13 Q 186.46 -29.38 189.79 -32.23 L 189.79 -32.23 Q 191.56 -33.8 193.02 -34.65 Q 194.48 -35.5 196.45 -35.97 L 196.45 -35.97 Q 197.4 -36.24 199.44 -36.24 L 199.44 -36.24 Q 200.74 -36.24 202.13 -35.7 Q 203.52 -35.16 204.48 -34.37 Q 205.43 -33.59 205.43 -32.91 L 205.43 -32.91 Q 205.43 -32.3 205.33 -32.16 Q 205.22 -32.03 204.75 -32.23 L 204.75 -32.23 L 204.07 -32.23 L 204.75 -30.26 Q 205.02 -29.65 205.22 -28.76 Q 205.43 -27.88 205.43 -27.13 L 205.43 -27.13 Q 205.43 -25.91 204.68 -22.41 Q 203.93 -18.9 203.39 -17.68 L 203.39 -17.68 Q 203.12 -17.14 203.12 -16.25 L 203.12 -16.25 L 201.42 -12.51 Q 201.14 -12.31 201.01 -12.04 Q 200.87 -11.76 201.08 -11.56 L 201.08 -11.56 Q 201.08 -11.29 200.36 -10.03 Q 199.65 -8.77 199.44 -8.77 L 199.44 -8.77 Q 199.38 -8.77 199.24 -8.74 Q 199.1 -8.7 199.1 -8.5 L 199.1 -8.5 Q 199.1 -8.23 198.19 -7.07 Q 197.27 -5.92 196.11 -4.76 L 196.11 -4.76 Q 195.09 -3.67 193.09 -2.55 Q 191.08 -1.43 190.06 -1.43 L 190.06 -1.43 Z M 189.86 -5.71 Q 191.49 -5.71 192.44 -6.66 L 192.44 -6.66 Q 193.73 -7.55 195.33 -9.42 Q 196.93 -11.29 197.68 -12.99 L 197.68 -12.99 Q 198.36 -13.94 198.8 -14.96 Q 199.24 -15.98 200.26 -18.97 L 200.26 -18.97 Q 200.74 -19.65 200.97 -20.71 Q 201.21 -21.76 201.21 -22.64 L 201.21 -22.64 Q 201.21 -25.64 201.55 -26.86 L 201.55 -26.86 Q 201.55 -28.76 201.48 -29.27 Q 201.42 -29.78 200.94 -30.33 L 200.94 -30.33 Q 200.19 -30.94 199.31 -30.94 L 199.31 -30.94 Q 198.83 -30.94 197.54 -30.43 Q 196.25 -29.92 195.7 -29.58 L 195.7 -29.58 Q 195.3 -29.44 195.09 -29.44 L 195.09 -29.44 Q 194.68 -29.44 194.38 -29.61 Q 194.07 -29.78 194.07 -30.06 L 194.07 -30.06 Q 194.07 -30.53 193.66 -30.53 L 193.66 -30.53 Q 193.12 -30.53 192.17 -29.72 Q 191.22 -28.9 190.13 -27.61 L 190.13 -27.61 Q 189.04 -26.52 188.12 -25.19 Q 187.2 -23.87 187.2 -23.6 L 187.2 -23.6 Q 187.2 -23.39 186.97 -22.85 Q 186.73 -22.3 186.59 -21.96 L 186.59 -21.96 Q 186.12 -21.22 185.3 -19.35 Q 184.48 -17.48 184.28 -16.66 L 184.28 -16.66 L 184.28 -12.99 Q 184.28 -11.29 184.48 -10.34 Q 184.69 -9.38 185.23 -8.36 L 185.23 -8.36 Q 185.5 -7.89 186.12 -7.21 Q 186.73 -6.53 186.86 -6.32 L 186.86 -6.32 Q 187.34 -5.85 187.65 -5.68 Q 187.95 -5.51 188.43 -5.51 L 188.43 -5.51 Q 188.97 -5.51 189.86 -5.71 L 189.86 -5.71 Z M 212.43 -1.56 Q 211.96 -1.77 211.07 -2.52 Q 210.19 -3.26 209.92 -3.88 L 209.92 -3.88 Q 209.85 -3.94 209.85 -4.28 L 209.85 -4.28 Q 209.85 -4.76 210.05 -5.37 Q 210.26 -5.98 210.46 -5.98 L 210.46 -5.98 Q 210.66 -5.78 211.58 -7.04 Q 212.5 -8.3 212.57 -8.64 L 212.57 -8.64 Q 212.64 -8.91 213.01 -9.15 Q 213.38 -9.38 213.52 -9.45 L 213.52 -9.45 Q 213.86 -10 214.51 -10.64 Q 215.15 -11.29 215.36 -11.56 L 215.36 -11.56 Q 215.63 -11.9 216.38 -12.68 Q 217.12 -13.46 217.74 -14.08 L 217.74 -14.08 Q 219.37 -15.57 220.12 -16.39 L 220.12 -16.39 Q 223.65 -20.2 223.79 -20.81 L 223.79 -20.81 Q 223.86 -20.88 224.06 -21.08 Q 224.26 -21.28 224.6 -21.49 L 224.6 -21.49 Q 225.62 -22.17 226.51 -23.05 L 226.51 -23.05 Q 226.58 -23.53 227.26 -24.55 Q 227.94 -25.57 228.62 -26.25 L 228.62 -26.25 Q 229.16 -27 229.6 -27.91 Q 230.04 -28.83 230.25 -29.51 L 230.25 -29.51 L 230.38 -30.12 Q 230.38 -30.4 230.04 -30.57 Q 229.7 -30.74 229.26 -30.87 Q 228.82 -31.01 228.55 -31.08 L 228.55 -31.08 Q 226.98 -31.55 225.83 -31.55 L 225.83 -31.55 Q 223.31 -31.55 220.66 -29.72 L 220.66 -29.72 Q 219.71 -29.51 219.16 -29.24 L 219.16 -29.24 Q 217.94 -28.83 217.6 -28.9 L 217.6 -28.9 Q 217.4 -28.97 216.99 -29.51 Q 216.58 -30.06 216.24 -30.4 L 216.24 -30.4 L 215.56 -31.82 L 217.67 -32.98 Q 221.88 -35.77 225.01 -35.77 L 225.01 -35.77 Q 226.1 -35.77 226.92 -35.5 L 226.92 -35.5 Q 227.53 -35.5 228.14 -35.36 Q 228.75 -35.22 228.89 -35.16 L 228.89 -35.16 Q 229.7 -35.22 231.03 -33.86 Q 232.36 -32.5 233.04 -31.08 L 233.04 -31.08 Q 233.85 -29.85 233.85 -28.56 L 233.85 -28.56 Q 233.85 -26.52 231.68 -23.32 L 231.68 -23.32 Q 230.18 -21.56 227.12 -18.22 Q 224.06 -14.89 223.38 -14.35 L 223.38 -14.35 Q 222.56 -13.94 219.44 -10.4 Q 216.31 -6.87 216.58 -6.87 L 216.58 -6.87 L 216.58 -6.73 Q 216.58 -7.14 220.83 -7.79 Q 225.08 -8.43 227.39 -8.43 L 227.39 -8.43 Q 228.14 -8.43 228.41 -8.3 L 228.41 -8.3 Q 228.55 -8.02 228.65 -8.06 Q 228.75 -8.09 228.75 -8.16 L 228.75 -8.16 Q 228.82 -8.43 229.7 -8.43 L 229.7 -8.43 Q 231.27 -8.43 233.38 -7.82 L 233.38 -7.82 Q 233.58 -7.75 234.09 -7.62 Q 234.6 -7.48 234.8 -7.34 Q 235.01 -7.21 235.01 -7.07 L 235.01 -7.07 Q 235.08 -7 235.25 -6.7 Q 235.42 -6.39 235.76 -5.98 L 235.76 -5.98 Q 236.37 -5.51 236.37 -5.17 L 236.37 -5.17 Q 236.37 -4.69 235.21 -4.69 L 235.21 -4.69 Q 234.4 -4.69 232.49 -5.03 L 232.49 -5.03 Q 230.72 -5.03 229.57 -4.83 L 229.57 -4.83 Q 229.36 -4.69 228.31 -4.66 Q 227.26 -4.62 226.71 -4.62 L 226.71 -4.62 Q 226.37 -4.69 225.76 -4.69 L 225.76 -4.69 Q 224.2 -4.69 221.34 -3.74 L 221.34 -3.74 Q 219.84 -3.13 216.44 -2.24 Q 213.04 -1.36 212.43 -1.56 L 212.43 -1.56 Z M 248.74 -1.09 Q 246.02 -1.09 243.95 -1.94 Q 241.88 -2.79 242.01 -3.94 L 242.01 -3.94 Q 242.08 -4.69 242.25 -4.93 Q 242.42 -5.17 242.96 -5.17 L 242.96 -5.17 L 244.39 -5.03 Q 245.89 -4.76 246.84 -4.76 L 246.84 -4.76 Q 249.9 -4.76 253.1 -5.92 Q 256.29 -7.07 257.92 -8.7 L 257.92 -8.7 Q 259.56 -10.27 259.56 -11.97 L 259.56 -11.97 Q 259.56 -13.87 257.45 -15.3 L 257.45 -15.3 Q 256.16 -16.18 253.5 -16.93 Q 250.85 -17.68 249.42 -17.54 L 249.42 -17.54 Q 249.22 -17.48 248.88 -17.48 L 248.88 -17.48 Q 248.2 -17.48 247.18 -18.09 L 247.18 -18.09 Q 246.57 -18.77 245.96 -19.99 L 245.96 -19.99 Q 245.89 -20.33 246.33 -20.67 Q 246.77 -21.01 248.47 -22 Q 250.17 -22.98 252.89 -24.41 L 252.89 -24.41 Q 257.04 -26.72 258.84 -27.85 Q 260.64 -28.97 261.66 -29.78 L 261.66 -29.78 Q 262.21 -30.46 262.55 -31.01 Q 262.89 -31.55 262.89 -31.82 L 262.89 -31.82 Q 262.89 -32.1 262.48 -32.3 Q 262.07 -32.5 261.12 -32.71 L 261.12 -32.71 Q 259.15 -32.91 257.52 -32.91 L 257.52 -32.91 Q 256.29 -32.91 256.29 -32.71 L 256.29 -32.71 L 256.02 -32.71 Q 255.54 -32.91 253.4 -32.44 Q 251.26 -31.96 251.19 -31.69 L 251.19 -31.69 Q 251.12 -31.48 249.76 -31.01 Q 248.4 -30.53 248.06 -30.53 L 248.06 -30.53 Q 247.52 -30.67 246.87 -31.82 Q 246.23 -32.98 246.43 -33.46 L 246.43 -33.46 Q 246.64 -34.07 250.65 -35.97 L 250.65 -35.97 Q 251.94 -36.31 254.97 -36.48 Q 257.99 -36.65 259.42 -36.52 L 259.42 -36.52 Q 265.54 -35.84 266.36 -31.42 L 266.36 -31.42 Q 266.56 -30.74 266.56 -30.19 L 266.56 -30.19 Q 266.56 -29.44 266.05 -28.8 Q 265.54 -28.15 263.98 -26.72 L 263.98 -26.72 L 262.34 -25.64 Q 260.1 -24.21 257.92 -22.98 L 257.92 -22.98 Q 257.79 -22.85 256.22 -21.83 L 256.22 -21.83 Q 254.46 -20.74 254.46 -20.54 L 254.46 -20.54 Q 254.59 -20.4 255.1 -20.09 Q 255.61 -19.79 256.16 -19.31 L 256.16 -19.31 Q 257.92 -18.7 259.56 -17.31 Q 261.19 -15.91 262.07 -14.69 L 262.07 -14.69 Q 262.89 -12.85 262.89 -11.15 L 262.89 -11.15 Q 262.89 -8.98 261.63 -7.11 Q 260.37 -5.24 257.86 -3.74 L 257.86 -3.74 Q 256.02 -2.72 253.5 -1.97 Q 250.99 -1.22 248.74 -1.09 L 248.74 -1.09 Z" stroke-linecap="round" />
</g>
</g>
</g>
</svg>